<svg height="60.998" viewBox="0 0 199.005 60.998">
  <defs>
    <linearGradient id="linear-gradient" y1="0.66" x2="0.999" y2="0.66" gradientUnits="objectBoundingBox">
      <stop offset="0" stop-color="#2e2e2e" stop-opacity="0"/>
      <stop offset="1" stop-color="#2e2e2e"/>
    </linearGradient>
    <linearGradient id="linear-gradient-2" y1="0.737" x2="0.995" y2="0.737" gradientUnits="objectBoundingBox">
      <stop offset="0" stop-color="#2e2e2e"/>
      <stop offset="1" stop-color="#2e2e2e" stop-opacity="0"/>
    </linearGradient>
  </defs>
  <g id="changelog-logo-full-grayscale" transform="translate(0.001 -0.003)">
    <path id="Pfad_272" data-name="Pfad 272" d="M138.6,24.68H131.32V28.39H137.8v4.034H131.32v3.946h7.552v4.067H126.949V20.652H138.6Z" fill="#2e2e2e"/>
    <path id="Pfad_273" data-name="Pfad 273" d="M35.511,26.934c-1.756-1.989-3.094-2.7-4.993-2.7a6.309,6.309,0,0,0,0,12.612c1.9,0,3.27-.742,5.053-2.748l3.121,2.907c-2.587,2.748-4.993,3.918-8.114,3.918a10.4,10.4,0,1,1,0-20.8c3.088,0,5.466,1.127,8.026,3.847Z" fill="#2e2e2e"/>
    <path id="Pfad_274" data-name="Pfad 274" d="M45.97,28.39h7.36V20.641h4.4V40.425h-4.4V32.456H45.97v7.979h-4.4V20.652h4.4Z" fill="#2e2e2e"/>
    <path id="Pfad_275" data-name="Pfad 275" d="M66.6,36.072l-1.519,4.363H60.442l7.4-19.784H72.9l7.4,19.784H75.629l-1.514-4.363Zm3.743-10.738-2.317,6.677h4.668Z" fill="#2e2e2e"/>
    <path id="Pfad_276" data-name="Pfad 276" d="M82.989,20.641H86.7L95.859,32.66V20.641h4.4V40.425H96.58L87.387,28.417V40.436h-4.4Z" fill="#2e2e2e"/>
    <path id="Pfad_277" data-name="Pfad 277" d="M123.536,29.159v2.05a10.79,10.79,0,0,1-1.277,5.369,9.054,9.054,0,0,1-8.086,4.364,10.4,10.4,0,1,1-.028-20.8c3.061,0,5.318,1.039,8.142,3.676l-3.105,2.907c-1.872-1.836-3.149-2.489-5.053-2.489a6.309,6.309,0,0,0,.033,12.612,4.614,4.614,0,0,0,4.811-3.682h-5.3V29.159Z" fill="#2e2e2e"/>
    <path id="Pfad_278" data-name="Pfad 278" d="M146.959,20.641V36.369h7.536v4.067H142.56V20.652Z" fill="#2e2e2e"/>
    <path id="Pfad_279" data-name="Pfad 279" d="M176.59,30.555a10.532,10.532,0,1,1-3.141-7.386A10.543,10.543,0,0,1,176.59,30.555Zm-16.706.088a6.138,6.138,0,0,0,12.275-.088,6.142,6.142,0,1,0-12.275.088Z" fill="#2e2e2e"/>
    <path id="Pfad_280" data-name="Pfad 280" d="M199,29.159v2.05a10.79,10.79,0,0,1-1.277,5.369,9.056,9.056,0,0,1-8.087,4.364,10.4,10.4,0,1,1-.027-20.8c3.061,0,5.317,1.039,8.141,3.676l-3.121,2.907c-1.871-1.836-3.148-2.489-5.053-2.489a6.309,6.309,0,0,0,.033,12.612,4.614,4.614,0,0,0,4.811-3.682h-5.29V29.159Z" fill="#2e2e2e"/>
    <path id="Pfad_281" data-name="Pfad 281" d="M30.556,61h-.628A30.5,30.5,0,1,1,52.124,8.942a.825.825,0,0,1-1.167,1.165,28.836,28.836,0,1,0,0,40.8.825.825,0,0,1,1.167,1.165A30.3,30.3,0,0,1,30.556,61Z" fill="url(#linear-gradient)"/>
    <path id="Pfad_282" data-name="Pfad 282" d="M30.5,51.108h-.7a20.608,20.608,0,1,1,0-41.216,20.749,20.749,0,0,1,15.314,6.045.825.825,0,0,1-.9,1.345.82.82,0,0,1-.267-.18,19.086,19.086,0,0,0-14.087-5.55,18.959,18.959,0,1,0,0,37.919,19.085,19.085,0,0,0,14.087-5.561.821.821,0,0,1,1.167,0,.829.829,0,0,1,0,1.165A20.737,20.737,0,0,1,30.5,51.108Z" fill="url(#linear-gradient-2)"/>
  </g>
</svg>
