<svg id="logo.5ce6d318" xmlns="http://www.w3.org/2000/svg" width="165.149" height="32.01" viewBox="0 0 165.149 32.01">
  <path id="Pfad_229" data-name="Pfad 229" d="M14.8,16.559A1.559,1.559,0,1,0,16.359,15,1.539,1.539,0,0,0,14.8,16.559M27.953,15a1.559,1.559,0,1,0,1.559,1.559A1.539,1.539,0,0,0,27.953,15m0,11.789a1.559,1.559,0,1,0,1.559,1.559,1.539,1.539,0,0,0-1.559-1.559" transform="translate(-0.38 -0.385)" fill="#2e2e2e"/>
  <path id="Pfad_230" data-name="Pfad 230" d="M30.886,1.659a4.15,4.15,0,0,0-6.041-.487l-.195.195-.39.292A4.029,4.029,0,0,1,18.9,1.366v-.1A4.416,4.416,0,0,0,17.051.2c-.1,0-.292-.1-.39-.1H15.1a.358.358,0,0,0-.292.1h-.195c-.1,0-.195.1-.292.1a.1.1,0,0,0-.1.1c-.1,0-.195.1-.292.1a.1.1,0,0,0-.1.1c-.1.1-.195.1-.292.195a.1.1,0,0,0-.1.1c-.1.1-.195.1-.292.195l-.1.1-.195.195-.39.292A3.9,3.9,0,0,1,7.21,1.366a.1.1,0,0,1-.1-.1l-.195-.195A4.011,4.011,0,0,0,4.872.1H3.118c0,.1-.1.1-.195.195h-.1a3.823,3.823,0,0,0-1.364.779l-.1.1-.292.292A4.462,4.462,0,0,0,.292,2.73c0,.1-.1.195-.1.292s-.1.195-.1.39a4.845,4.845,0,0,0,.1,2.046c0,.1.1.195.1.292v.1c0,.1.1.195.1.292.1.1.1.195.195.39a2.125,2.125,0,0,1,.487.39l.195.195.195.195a3.972,3.972,0,0,1-.1,5.554,3.64,3.64,0,0,0-.585.682c-.1.1-.1.195-.195.39v.1c-.1.1-.1.195-.195.292v.1c0,.1-.1.195-.1.292v.1a.358.358,0,0,1-.1.292v1.461a.358.358,0,0,0,.1.292v.1A4.545,4.545,0,0,0,1.461,18.9a4,4,0,0,1,0,5.651l-.1.1-.195.195v.1c-.1.1-.195.195-.195.292a.1.1,0,0,1-.1.1c-.1.1-.1.195-.195.292l-.1.1c0,.1-.1.1-.1.195s-.1.1-.1.195,0,.1-.1.195A3,3,0,0,0,0,27.576v.779c.1.292.1.585.292.779a.34.34,0,0,0,.1.195.1.1,0,0,0,.1.1c0,.1.1.195.1.292a.1.1,0,0,0,.1.1,1.345,1.345,0,0,0,.292.39.1.1,0,0,0,.1.1.1.1,0,0,0,.1.1.1.1,0,0,0,.1.1l.1.1c.1.1.195.1.195.195l.1.1a.1.1,0,0,1,.1.1c.1.1.195.195.292.195a.1.1,0,0,1,.1.1c.1.1.195.1.292.195h.1c.1.1.195.1.39.1.1,0,.292.1.39.1h.1a.358.358,0,0,1,.292.1h.877c.292,0,.487-.1.779-.1h.1c.1,0,.195-.1.292-.1h.1c.1,0,.195-.1.292-.1h.1c.195-.1.487-.292.682-.39l.292-.292.1-.1a3.835,3.835,0,0,1,5.651,0,4.168,4.168,0,0,0,6.333-.292,4.239,4.239,0,0,0,0-5.164,4.15,4.15,0,0,0-6.041-.487l-.195.195-.39.292a4.029,4.029,0,0,1-5.359-.292l-.195-.195-.292-.39A4.029,4.029,0,0,1,7.113,19a3.845,3.845,0,0,0,1.267-2.923v-.292A3.48,3.48,0,0,0,7.21,13.156c0-.1-.1-.1-.1-.195l-.292-.39a4.029,4.029,0,0,1,.292-5.359l.1-.1.1-.1a3.835,3.835,0,0,1,5.651,0l.1.1.1.1.195.195c.1,0,.1.1.195.1s.1.1.195.1.1.1.195.1.1.1.195.1.1.1.195.1.1.1.195.1.1,0,.195.1c.1,0,.1,0,.195.1h1.656a.358.358,0,0,0,.292-.1h.195c.1,0,.195-.1.292-.1h.1c.1,0,.195-.1.39-.195A4.326,4.326,0,0,0,18.9,7.018l.1-.1a3.835,3.835,0,0,1,5.651,0,4,4,0,0,0,6.236-.195,4.1,4.1,0,0,0,0-5.067" transform="translate(0 -0.002)" fill="#2e2e2e"/>
  <path id="Pfad_231" data-name="Pfad 231" d="M54.189,13.738a5.356,5.356,0,0,0-1.754-1.267,4.645,4.645,0,0,0-2.144-.487,4.96,4.96,0,0,0-2.144.487,3.642,3.642,0,0,0-1.462,1.267,4.946,4.946,0,0,0-.877,1.754,7.417,7.417,0,0,0-.292,2.046,5.088,5.088,0,0,0,.39,2.046,4.924,4.924,0,0,0,2.533,2.826,4.519,4.519,0,0,0,2.046.39,4.645,4.645,0,0,0,2.144-.487,5.022,5.022,0,0,0,1.656-1.267l2.046,2.144A6.846,6.846,0,0,1,53.7,25.04a8.582,8.582,0,0,1-3.215.585,9.1,9.1,0,0,1-3.313-.585,7.387,7.387,0,0,1-4.19-4.19,9.1,9.1,0,0,1-.585-3.313,9.1,9.1,0,0,1,.585-3.313,9.239,9.239,0,0,1,1.656-2.631,7.62,7.62,0,0,1,2.533-1.656,9.1,9.1,0,0,1,3.313-.585,8.582,8.582,0,0,1,3.215.585,7.537,7.537,0,0,1,2.728,1.851l-2.241,1.949m6.625,3.605a4.956,4.956,0,0,0,.39,2.144,5.109,5.109,0,0,0,.974,1.754,3.462,3.462,0,0,0,1.559,1.072,4.956,4.956,0,0,0,2.144.39,5.243,5.243,0,0,0,2.144-.39,6.281,6.281,0,0,0,1.559-1.072,5.109,5.109,0,0,0,.974-1.754,7.6,7.6,0,0,0,.39-2.144,4.956,4.956,0,0,0-.39-2.144,5.109,5.109,0,0,0-.974-1.754,3.462,3.462,0,0,0-1.559-1.072,4.956,4.956,0,0,0-2.144-.39,5.243,5.243,0,0,0-2.144.39,6.281,6.281,0,0,0-1.559,1.072A5.109,5.109,0,0,0,61.2,15.2,7.6,7.6,0,0,0,60.815,17.343Zm-3.118,0a8.582,8.582,0,0,1,.585-3.215A7.786,7.786,0,0,1,60.035,11.5a6.941,6.941,0,0,1,2.631-1.754,8.614,8.614,0,0,1,3.215-.682,7.06,7.06,0,0,1,3.215.682A7.786,7.786,0,0,1,71.727,11.5a9.551,9.551,0,0,1,1.754,2.631,8.582,8.582,0,0,1,.585,3.215,8.582,8.582,0,0,1-.585,3.215,7.786,7.786,0,0,1-1.754,2.631A8.293,8.293,0,0,1,69.1,24.943a8.614,8.614,0,0,1-3.215.682,7.059,7.059,0,0,1-3.215-.682,7.786,7.786,0,0,1-2.631-1.754,8.293,8.293,0,0,1-1.754-2.631A11.09,11.09,0,0,1,57.7,17.343Zm19.389,7.892h2.923V9.646H77.086ZM76.4,3.995a2.389,2.389,0,0,1,.585-1.559,2.072,2.072,0,0,1,1.462-.682,1.753,1.753,0,0,1,1.461.682A2.213,2.213,0,0,1,80.5,3.995a2.389,2.389,0,0,1-.585,1.559,2.072,2.072,0,0,1-1.461.682,1.753,1.753,0,0,1-1.462-.682A2.213,2.213,0,0,1,76.4,3.995Zm7.7,5.651h2.923v2.436h.1a3.971,3.971,0,0,1,1.949-2.046,6.538,6.538,0,0,1,3.215-.779,5.243,5.243,0,0,1,2.144.39,4.077,4.077,0,0,1,1.754,1.072,6.852,6.852,0,0,1,1.267,1.851,7.582,7.582,0,0,1,.487,2.728V25.333H95.014V16.076a5.273,5.273,0,0,0-.292-1.851,4,4,0,0,0-.779-1.267,2.338,2.338,0,0,0-1.169-.682,5.751,5.751,0,0,0-1.364-.195,4.551,4.551,0,0,0-1.656.292,3.231,3.231,0,0,0-1.364.974A3.831,3.831,0,0,0,87.512,15a8.526,8.526,0,0,0-.292,2.338V25.43H84.3V9.646M108.752,22.8a5.243,5.243,0,0,0,2.144-.39,5.1,5.1,0,0,0,1.656-1.169,5.109,5.109,0,0,0,.974-1.754,7.674,7.674,0,0,0,.39-2.241,5.716,5.716,0,0,0-.39-2.241,5.109,5.109,0,0,0-.974-1.754,5.1,5.1,0,0,0-1.656-1.169,6.09,6.09,0,0,0-4.287,0,5.1,5.1,0,0,0-1.656,1.169A5.109,5.109,0,0,0,103.978,15a7.674,7.674,0,0,0-.39,2.241,5.716,5.716,0,0,0,.39,2.241,5.109,5.109,0,0,0,.974,1.754,4.233,4.233,0,0,0,1.656,1.169A7.005,7.005,0,0,0,108.752,22.8Zm8.087,2.338h-2.923V22.9h-.1a5.729,5.729,0,0,1-2.338,1.949,6.929,6.929,0,0,1-3.118.682,9.1,9.1,0,0,1-3.313-.585,6.591,6.591,0,0,1-2.533-1.754,7.253,7.253,0,0,1-1.559-2.631,8.582,8.582,0,0,1-.585-3.215,9.487,9.487,0,0,1,.585-3.313,8.951,8.951,0,0,1,1.559-2.631,6.591,6.591,0,0,1,2.533-1.754,8.74,8.74,0,0,1,3.313-.585,6.929,6.929,0,0,1,3.118.682,5.533,5.533,0,0,1,2.241,1.949h.1V0h2.923V25.138Zm14.907-9.061a5.673,5.673,0,0,0-.292-1.851,3.669,3.669,0,0,0-.877-1.461,6.916,6.916,0,0,0-1.364-.974,5.765,5.765,0,0,0-1.949-.39,4.362,4.362,0,0,0-1.949.39,5.569,5.569,0,0,0-1.559,1.072,3.854,3.854,0,0,0-.974,1.462,5.212,5.212,0,0,0-.39,1.559h9.354Zm-9.354,2.436a4.03,4.03,0,0,0,.487,1.851,4.314,4.314,0,0,0,1.169,1.462,5.417,5.417,0,0,0,1.656.877,6.751,6.751,0,0,0,1.949.292,4.185,4.185,0,0,0,2.436-.682,7.316,7.316,0,0,0,1.851-1.656l2.241,1.754a8.29,8.29,0,0,1-6.918,3.215,8.74,8.74,0,0,1-3.313-.585,7.189,7.189,0,0,1-4.092-4.384,8.583,8.583,0,0,1-.585-3.215,8.582,8.582,0,0,1,.585-3.215,9.239,9.239,0,0,1,1.656-2.631,7.854,7.854,0,0,1,2.533-1.754,8.582,8.582,0,0,1,3.215-.585,7.778,7.778,0,0,1,3.508.682,6.377,6.377,0,0,1,2.338,1.851,8.447,8.447,0,0,1,1.364,2.631,10.278,10.278,0,0,1,.39,3.02v1.072H122.393Zm23.969-4.969a6.708,6.708,0,0,0-1.267-1.072,3.731,3.731,0,0,0-1.851-.487,4.03,4.03,0,0,0-1.851.487,1.4,1.4,0,0,0-.779,1.267,1.257,1.257,0,0,0,.487,1.072,4.023,4.023,0,0,0,1.072.682,6.3,6.3,0,0,0,1.267.39,7.194,7.194,0,0,0,1.169.195,9.261,9.261,0,0,1,1.754.585,3.669,3.669,0,0,1,1.461.877A6.255,6.255,0,0,1,148.8,18.8a4.757,4.757,0,0,1,.39,1.851A4.036,4.036,0,0,1,148.6,22.9a5.578,5.578,0,0,1-1.462,1.559,6.5,6.5,0,0,1-2.046.877,9.444,9.444,0,0,1-2.241.292,9.265,9.265,0,0,1-3.41-.585,5.99,5.99,0,0,1-2.631-2.144l2.241-1.851a9.837,9.837,0,0,0,1.559,1.267,3.705,3.705,0,0,0,2.144.585,4.743,4.743,0,0,0,1.169-.1,2.918,2.918,0,0,0,.974-.39,4.238,4.238,0,0,0,.682-.585,1.572,1.572,0,0,0,.292-.877,1.465,1.465,0,0,0-.39-1.072,3.5,3.5,0,0,0-.974-.682,5.493,5.493,0,0,0-1.169-.39l-1.169-.292c-.585-.195-1.267-.292-1.754-.487a5.164,5.164,0,0,1-1.462-.779,4.614,4.614,0,0,1-1.072-1.267,3.709,3.709,0,0,1-.39-1.851,4.96,4.96,0,0,1,.487-2.144,3.907,3.907,0,0,1,1.364-1.461,6.462,6.462,0,0,1,1.851-.877,8.115,8.115,0,0,1,2.144-.292,7.94,7.94,0,0,1,3.02.585,5.068,5.068,0,0,1,2.338,1.949l-2.338,1.656M152.012.39h2.923V16.174l6.625-6.625h3.995l-7.113,7.015,7.795,8.379h-4.19l-7.113-7.99v7.99h-2.923V.39" transform="translate(-1.088)" fill="#2e2e2e"/>
</svg>
