<svg xmlns="http://www.w3.org/2000/svg" width="45.341" height="32.395" viewBox="0 0 45.341 32.395" class="fill-current inline-icon">
  <path transform="translate(738.13 5433.951)" d="M-726.272-5401.557h0a15.749,15.749,0,0,1-9.148-3.048,11.23,11.23,0,0,1-2.71-2.834,50,50,0,0,1,2.8-15.9,45.473,45.473,0,0,1,2.8-6.581,19.478,19.478,0,0,1,10.831-4.031h.03l.379.475c-6.739,1.925-10.016,4.9-10.145,5.023l.023-.013c.367-.2,1.148-.6,2.249-1.075a31.115,31.115,0,0,1,8.748-2.456l.074-.01a2.876,2.876,0,0,0,.33-.024,3.036,3.036,0,0,1,.334-.024,30.54,30.54,0,0,1,4.228-.282,36.047,36.047,0,0,1,3.644.188,32.663,32.663,0,0,1,11.715,3.7c-.028-.026-3.194-2.926-9.675-4.885l.521-.616h.031a19.367,19.367,0,0,1,10.83,4.031,45.27,45.27,0,0,1,2.8,6.581,50,50,0,0,1,2.8,15.9.317.317,0,0,0-.032.045,11.884,11.884,0,0,1-2.992,2.992,15.84,15.84,0,0,1-8.833,2.8l-.011-.013c-.247-.289-1.529-1.8-2.55-3.117,5.056-1.4,7.047-4.522,7.067-4.554a22.226,22.226,0,0,1-4.458,2.276,27.087,27.087,0,0,1-5.645,1.661,26.282,26.282,0,0,1-4.885.46,26.875,26.875,0,0,1-5.17-.508,28.336,28.336,0,0,1-5.691-1.66,18.775,18.775,0,0,1-2.845-1.329.47.47,0,0,0-.165-.095.476.476,0,0,1-.167-.095.3.3,0,0,1-.088-.065c-.018-.018-.03-.03-.054-.03-.747-.374-1.183-.615-1.186-.617a12.146,12.146,0,0,0,6.783,4.554c-1.064,1.374-2.407,2.993-2.557,3.172l0,0Zm17.737-20.585a4.089,4.089,0,0,0-3.984,4.269,4.138,4.138,0,0,0,3.984,4.269,4.089,4.089,0,0,0,3.984-4.269A4.138,4.138,0,0,0-708.535-5422.142Zm-14.18,0a4.089,4.089,0,0,0-3.984,4.269,4.138,4.138,0,0,0,3.984,4.269,4.089,4.089,0,0,0,3.984-4.269,4.244,4.244,0,0,0-1.2-3.087A3.874,3.874,0,0,0-722.716-5422.142Z" fill="#2e2e2e" />
</svg>
