<svg width="1246" height="1086" viewBox="0 0 1246 1086" class="fill-current h-12 w-12">
	<path d="M 615.994 1.875 C 608.536 4.320, 602.340 9.749, 599.301 16.500 C 597.621 20.230, 597.466 26.636, 597 111.514 L 596.500 202.527 299.726 625.705 C 136.501 858.453, 2.288 1050.766, 1.476 1053.067 C -5.211 1072.021, 13.821 1091.302, 32.624 1084.623 C 34.756 1083.866, 52.475 1074.024, 72 1062.752 C 91.525 1051.480, 125.884 1031.646, 148.353 1018.677 L 189.206 995.096 705.720 1040.694 L 1222.234 1086.292 1227.730 1084.559 C 1245.180 1079.058, 1250.664 1056.335, 1237.595 1043.676 C 1235.002 1041.164, 1205.484 1023.535, 1157.104 995.605 L 1080.709 951.500 862.273 482 C 704.366 142.601, 642.958 11.575, 640.668 9.162 C 638.926 7.327, 635.733 4.914, 633.572 3.801 C 629.285 1.593, 619.968 0.572, 615.994 1.875 M 648 171.911 L 648 203.154 721.644 330.827 C 784.984 440.637, 801.326 468.608, 796.238 458.500 C 795.684 457.400, 762.270 385.625, 721.984 299 C 681.699 212.375, 648.572 141.313, 648.369 141.083 C 648.166 140.854, 648 154.726, 648 171.911 M 424.975 601.099 C 316.364 789.208, 227.350 943.539, 227.167 944.057 C 226.958 944.646, 375.195 945, 622.417 945 C 839.987 945, 1018 944.783, 1018 944.518 C 1018 944.091, 628.266 268.565, 624.111 261.791 L 622.450 259.083 424.975 601.099 M 211.721 838.250 C 156.454 917.038, 111.346 981.627, 111.482 981.782 C 111.619 981.937, 123.746 975.115, 138.432 966.623 L 165.133 951.183 238.489 824.120 C 278.836 754.236, 312.132 696.595, 312.482 696.029 C 312.832 695.463, 312.913 695, 312.663 695 C 312.413 695, 266.989 759.462, 211.721 838.250 M 765.500 995.720 C 772.624 996.405, 1108.209 1026, 1108.844 1026 C 1109.183 1026, 1097.378 1019.025, 1082.612 1010.500 L 1055.766 995 908.633 995.168 C 827.710 995.261, 763.300 995.509, 765.500 995.720 " stroke="none" fill="inherit" fill-rule="evenodd"/>
</svg>