<svg width="58.422" height="58.422" viewBox="0 0 58.422 58.422">
  <path d="M58.422,58.422H0V0H58.422V58.421ZM10.612,14.184a4.819,4.819,0,0,0-1.381.129C9.142,14.4,9.1,22.991,9.1,31.028c0,5.984.029,13.011.109,13.126.024.034.117.064.278.089a6.985,6.985,0,0,0,.976.059c.15,0,.29,0,.414-.011h.121l.017,0c.212-.02.332-.051.347-.09.028-.073.045-3.954.045-10.381v-.167c0-7.895-.029-19.345-.08-19.4A2.245,2.245,0,0,0,10.612,14.184Zm7.915,14.848c-3.171,0-6.559.027-6.591.076s-.065,4.56-.065,8.871v.086c0,2.908.013,6.039.048,6.1a2.345,2.345,0,0,0,1.045.132,5.38,5.38,0,0,0,.927-.065.415.415,0,0,0,.188-.068c.113-.114.115-.233.117-6.377,0-4.506.02-6.284.067-6.34s2.1-.085,4.011-.085c1.406,0,3.08.018,3.171.067s.113.181.113,5.271v1.7c0,5.526.009,5.692.106,5.781a3.258,3.258,0,0,0,1.067.107,2.957,2.957,0,0,0,1.014-.1c.067-.067.091-3.553.091-6.518v-.087c0-4.082-.042-8.446-.117-8.494a.139.139,0,0,0-.04-.008C23.316,29.046,20.677,29.032,18.526,29.032Zm16.2-6.855a.045.045,0,0,0-.033.013c-.069.069-.105,5.933-.105,11.69,0,5.072.03,10.221.094,10.293l0,0a3.415,3.415,0,0,0,1.154.12,3.038,3.038,0,0,0,.981-.1l0,0,.009-.007c.082-.082.092-.875.092-7.711V28.86h.133c.091,0,.2.088.346.278.117.152.354.463.527.689s.374.478.444.554a6.937,6.937,0,0,1,.526.653c.132.179.561.726.956,1.221s.862,1.089,1.039,1.324a2.433,2.433,0,0,0,.362.422c.023,0,.058.047.076.1a1.381,1.381,0,0,0,.223.319c.1.116.344.414.541.664.183.235.475.6.645.806s.468.586.671.854.405.523.439.555a3.464,3.464,0,0,1,.229.292c.146.2.27.356.666.818.054.063.228.286.386.5s.421.541.581.733.358.435.428.527l0,0c.074.1.31.4.536.686a5.49,5.49,0,0,1,.409.555,1.658,1.658,0,0,0,.22.284c.122.139.383.457.569.694s.532.668.761.95.457.576.518.671.085.13.117.13.046-.02.085-.059c.071-.071.129-13.285.129-21.871,0-4.792-.017-7.532-.048-7.716l-.045-.272-1.028-.015c-.186,0-.335,0-.456,0-.435,0-.6.017-.638.068s-.067,3-.067,11.647c0,6.362-.016,11.567-.036,11.6a.039.039,0,0,1-.029.01.679.679,0,0,1-.371-.313,1.8,1.8,0,0,0-.248-.327c-.093-.1-.3-.351-.454-.555s-.374-.472-.479-.582a1.113,1.113,0,0,1-.194-.241c0-.032-.58-.777-.861-1.107l-.087-.106c-.283-.35-1.09-1.374-1.271-1.613-.107-.141-.23-.295-.287-.358l-.011-.011c-.053-.057-.2-.252-.331-.427s-.318-.412-.424-.527a3.239,3.239,0,0,1-.281-.344c-.053-.08-.2-.278-.331-.441l-.362-.455c-.991-1.245-2.214-2.771-2.516-3.14a5.617,5.617,0,0,1-.413-.551.075.075,0,0,1-.011-.027.056.056,0,0,0-.05-.06,1.408,1.408,0,0,1-.287-.336c-.128-.182-.322-.43-.432-.552s-.3-.354-.428-.517-.346-.437-.467-.584-.367-.457-.555-.706a5.216,5.216,0,0,0-.428-.515,1.289,1.289,0,0,1-.218-.3C35.162,22.513,34.85,22.178,34.723,22.178ZM25.1,14.219a4.473,4.473,0,0,0-.589.021.558.558,0,0,0-.188.085c-.13.1-.074,28.54.058,29.828a.126.126,0,0,0,.009.047,4.59,4.59,0,0,0,1.161.089,3.464,3.464,0,0,0,.963-.076c.053-.053.077-7.713.077-14.809V29.23c0-7.167-.025-14.9-.079-14.954a2.815,2.815,0,0,0-.815-.064c-.145,0-.3,0-.449.008Zm6.892.172a.1.1,0,0,0-.095.043c-.038.06-.055,7.7-.054,14.78v.174c0,7.077.018,14.72.056,14.78a5.208,5.208,0,0,0,1.438.118c.1,0,.2,0,.282,0a2.356,2.356,0,0,0,.5-.048c.016-.006.025-.012.027-.019.016-.043.036-5.367.043-11.626.01-7.665.034-11.571.073-11.609a.017.017,0,0,1,.012,0c.06,0,.262.217.6.646.3.383.657.824.788.983s.284.353.351.446.222.295.35.452.308.381.41.509c.552.7,1.545,1.944,1.742,2.176.1.117.444.553.787.994l.032.041c.352.452,1,1.279,1.449,1.843.484.611,1.094,1.382,1.356,1.715.449.571.828,1.043.988,1.233.114.135.352.442.481.621.1.134.276.362.713.9.033.041.3.385.827,1.052,1.169,1.49,1.407,1.782,1.5,1.782a.053.053,0,0,0,.038-.019c.036-.036.049-5,.048-9.235v-.255c0-6.149-.025-12.533-.066-12.573a3.609,3.609,0,0,0-1.116-.1h-.034c-.1,0-.2,0-.292,0-.122,0-.228,0-.316.007a.775.775,0,0,0-.4.1c-.047.057-.068,2.217-.077,7.706-.01,5.347-.033,7.647-.077,7.691a.028.028,0,0,1-.02.009A17.51,17.51,0,0,1,42.3,27.2c-.108-.137-.422-.529-.714-.892s-1.2-1.506-1.928-2.417c-.768-.965-1.451-1.821-1.493-1.869s-.262-.327-.468-.595-.555-.711-.758-.964l-.006-.008-.013-.016c-.2-.254-.4-.5-.457-.578-.127-.167-.614-.763-.93-1.139l-.116-.137a3.569,3.569,0,0,1-.271-.351c-.029-.052-.657-.852-1.431-1.821-.76-.952-1.4-1.771-1.419-1.826A.37.37,0,0,0,31.99,14.39Zm-19.515-.173a2.412,2.412,0,0,0-.44.024.294.294,0,0,0-.066.034.176.176,0,0,0-.065.061c-.035.052-.047,2.909-.047,5.566v.081c0,4.04.027,8.459.07,8.553l.068.148h5.824c5.551,0,5.828,0,5.92-.106.078-.086.113-3.7.113-7.024,0-3.481-.037-7.247-.118-7.29a4.624,4.624,0,0,0-.793-.033,9.5,9.5,0,0,0-1.328.056c-.034.021-.055,2.268-.055,6.012,0,5.364-.01,5.983-.093,6.014s-1.517.037-2.847.037c-1.506,0-3.4-.012-4.11-.036l-.18-.008h-.016a.684.684,0,0,1-.075-.007c-.008,0-.008,0-.009,0-.018-.028-.032-2.472-.032-5.564v-1.2a43.758,43.758,0,0,0-.08-5.207,3.6,3.6,0,0,0-.983-.087C12.9,14.223,12.662,14.218,12.475,14.218Z" fill="#2e2e2e"/>
</svg>
