<svg id="hackernoon" xmlns="http://www.w3.org/2000/svg" width="199.216" height="26.335" viewBox="0 0 199.216 26.335">
  <path id="Pfad_197" data-name="Pfad 197" d="M10.346-25.344V-22.3H8.323v4.047H6.285l0,3.038,0,3.04,1.016,0,1.015,0v4.047h2.024v6.071l7.087,0,7.086,0,0-3.031,0-3.033,1.009,0,1.008,0,0-2.019,0-2.021,1.009,0,1.008,0,0-1.016,0-1.015H30.6V-16.23H28.573v-2.024H26.549V-22.3H24.526l0-3.04,0-3.038-7.086,0-7.087,0Zm6.071,6.078v5.059h2.024V-24.325h2.024V-22.3h4.047v4.047h2.038v6.071l-1.015,0-1.016,0,0,2.019,0,2.021-2.021,0-2.019,0,0,1.016,0,1.015-3.033,0-3.031,0,0-1.016,0-1.015H10.346v-4.047H8.323v-6.071h2.024V-22.3h4.047v-2.024h2.024Z" transform="translate(-6.285 28.386)" fill="#2e2e2e"/>
  <path id="Pfad_198" data-name="Pfad 198" d="M37.155-15.122V-8h2.853V-13.7h8.53V-8H51.39V-22.24l-1.422,0-1.424,0,0,2.842,0,2.843h-8.53V-22.24H37.155Z" transform="translate(-5.887 28.466)" fill="#2e2e2e"/>
  <path id="Pfad_199" data-name="Pfad 199" d="M54.022-22.23c-.006,0-.01,3.208-.01,7.118V-8h2.853V-13.7h8.544V-8h2.853l0-7.115,0-7.114-7.112,0C57.231-22.239,54.026-22.236,54.022-22.23Zm11.387,4.262v1.419H56.865v-2.839h8.544Z" transform="translate(-5.669 28.466)" fill="#2e2e2e"/>
  <path id="Pfad_200" data-name="Pfad 200" d="M70.883-15.122V-8H85.118v-2.853H73.735v-8.53H85.118V-22.24H70.883Z" transform="translate(-5.452 28.466)" fill="#2e2e2e"/>
  <path id="Pfad_201" data-name="Pfad 201" d="M87.74-15.122V-8h2.853V-13.7h5.691v2.853h2.839V-8h2.853v-2.853H99.137V-13.7H96.284v-2.839l1.424,0,1.422,0,0-1.424,0-1.422h2.839V-22.24l-1.422,0-1.424,0,0,1.422,0,1.424H96.284v2.839H90.592V-22.24H87.74Z" transform="translate(-5.234 28.466)" fill="#2e2e2e"/>
  <path id="Pfad_202" data-name="Pfad 202" d="M104.606-22.23c-.006,0-.01,3.208-.01,7.118V-8h14.25l0-1.424,0-1.422-5.687,0-5.689,0V-13.7h5.691l0-1.424,0-1.422-2.842,0-2.843,0v-2.839h11.383l0-1.424,0-1.422-7.112,0C107.816-22.239,104.611-22.236,104.606-22.23Z" transform="translate(-5.017 28.466)" fill="#2e2e2e"/>
  <path id="Pfad_203" data-name="Pfad 203" d="M121.467-15.122V-8h2.853V-13.7H130l0,1.422,0,1.424,1.424,0,1.422,0V-8H135.7v-2.853h-2.839V-13.7H135.7V-22.24H121.467Zm11.383-2.846v1.419h-8.53v-2.839h8.53Z" transform="translate(-4.799 28.466)" fill="#2e2e2e"/>
  <path id="Pfad_204" data-name="Pfad 204" d="M138.324-15.122V-8h2.853V-19.387h8.53V-8h2.853V-22.24H138.324Z" transform="translate(-4.582 28.466)" fill="#2e2e2e"/>
  <path id="Pfad_205" data-name="Pfad 205" d="M155.191-22.23c-.006,0-.01,3.208-.01,7.118V-8h14.25V-22.24h-7.115C158.4-22.24,155.2-22.236,155.191-22.23Zm11.387,7.108v4.265h-8.53v-8.53h8.53Z" transform="translate(-4.364 28.466)" fill="#2e2e2e"/>
  <path id="Pfad_206" data-name="Pfad 206" d="M172.052-15.122V-8h14.236V-22.24H172.052Zm11.383,0v4.265h-8.53v-8.53h8.53Z" transform="translate(-4.147 28.466)" fill="#2e2e2e"/>
  <path id="Pfad_207" data-name="Pfad 207" d="M188.909-15.122V-8h2.853V-19.387h8.53V-8h2.853V-22.24H188.909Z" transform="translate(-3.929 28.466)" fill="#2e2e2e"/>
</svg>
