<svg width="272.685" height="43.269" viewBox="0 0 272.685 43.269">
  <g transform="translate(-811.199 -1085.524)">
    <g transform="translate(990.16 1101.352)">
      <path d="M43.8,11.527,42.552,8.066H38.31l-1.248,3.461H36.03l3.311-9.068a5.876,5.876,0,0,0,.283-.982c0-.7-.765-.7-1.281-.782V.329h3.128l4.06,11.2H43.8Zm-3.428-9.1-1.78,4.858h3.677Z" transform="translate(-36.03 -0.146)" fill="#2e2e2e"/>
      <path d="M69.768,11.527,66.823,6.352H65.792v5.174h-1.83V2.592c0-1.6,0-1.664-1.581-1.9V.329h4.276c2.013,0,4.509.433,4.509,2.978,0,1.68-.965,2.5-2.546,2.745l3.061,5.474H69.768ZM66.906,1.111c-1.2,0-1.115.449-1.115,1.5V5.57h.948c1.448,0,2.6-.532,2.6-2.163C69.335,1.76,68.487,1.111,66.906,1.111Z" transform="translate(-47.744 -0.146)" fill="#2e2e2e"/>
      <path d="M94.264,11.653c-3.827,0-4.908-2.479-4.908-5.923C89.356,2.519,90.421.239,94,.239a10.687,10.687,0,0,1,3.328.5l.1,2.779h-.482A2.466,2.466,0,0,0,96.593,2.5a2.764,2.764,0,0,0-2.429-1.464c-2.512,0-2.845,2.762-2.845,4.692,0,2.063.632,4.991,3.228,4.991a4.749,4.749,0,0,0,2.912-.849V11.02A7.506,7.506,0,0,1,94.264,11.653Z" transform="translate(-59.736 -0.106)" fill="#2e2e2e"/>
      <path d="M122.166,11.38V5.94h-4.525V11.38h-1.83v-9c0-1.448-.266-1.481-1.664-1.63V.383L117.641,0V5.158h4.525V.183H124v11.2h-1.83Z" transform="translate(-70.756)" fill="#2e2e2e"/>
      <path d="M143.455,11.62V11.2c1.248,0,1.414-.333,1.414-1.547V2.5c0-1.215-.166-1.547-1.414-1.547V.539h4.659V.955c-1.248,0-1.414.349-1.414,1.547V9.657c0,1.2.166,1.547,1.414,1.547v.416h-4.659Z" transform="translate(-83.785 -0.24)" fill="#2e2e2e"/>
      <path d="M168.341,11.527h-1.448l-3.261-9.068c-.5-1.4-.582-1.5-2.013-1.764V.329h3.228l3.261,9.117h.033L171.319.329H172.4Z" transform="translate(-91.859 -0.146)" fill="#2e2e2e"/>
      <path d="M198.095,11.527h-6.639V2.592c0-1.6-.017-1.647-1.581-1.9V.329h7.97l.05,2.462h-.466c0-1.248-.616-1.68-1.8-1.68h-1.3c-.765,0-1.048.017-1.048.865V5.287H195.3c.948,0,1.215-.433,1.364-1.281h.466V7.5h-.466c0-.932-.4-1.431-1.364-1.431h-2.013V9.78c0,.915.2.965,1.048.965h1.847c1.131,0,1.414-.566,1.5-1.631h.466Z" transform="translate(-104.421 -0.146)" fill="#2e2e2e"/>
    </g>
    <g transform="translate(975.231 1101.476) rotate(90)">
      <path d="M11.2,195.236h-.413c0-1.238-.33-1.4-1.535-1.4h-7.1c-1.205,0-1.535.165-1.535,1.4H.21v-4.622H.622c0,1.238.347,1.4,1.535,1.4h7.1c1.189,0,1.535-.165,1.535-1.4H11.2Z" transform="translate(-0.094 -87.383)" fill="#2e2e2e"/>
      <path d="M11.111,164.792,1.717,170.24v.033h9.394v1.04h-9c-1.552,0-1.486.247-1.75,1.651H0V169.48l8.981-5.2v-.033H0v-1.04H11.111Z" transform="translate(0 -75.082)" fill="#2e2e2e"/>
      <path d="M2.443,136.083c-1.288,0-1.667.561-1.667,1.8V139H11.111v1.816H.776v1.139c0,1.255.363,1.684,1.618,1.783v.462L0,144.139v-8.453l2.443-.066Z" transform="translate(0 -62.7)" fill="#2e2e2e"/>
      <path d="M11.111,111.588v6.587H2.245c-1.585,0-1.634.016-1.882,1.568H0v-7.908l2.443-.049v.462c-1.238,0-1.667.611-1.667,1.783v1.288c0,.759.017,1.04.858,1.04H4.92v-2c0-.941-.429-1.2-1.271-1.354v-.462H7.116v.462c-.925,0-1.42.4-1.42,1.354v2H9.377c.908,0,.958-.2.958-1.04v-1.832c0-1.123-.561-1.4-1.618-1.486v-.462Z" transform="translate(0 -51.891)" fill="#2e2e2e"/>
      <path d="M11.111,85.97,5.976,88.892v1.024h5.134v1.816H2.245c-1.585,0-1.651,0-1.882,1.568H0V89.057c0-2,.429-4.474,2.955-4.474,1.667,0,2.476.958,2.724,2.526l5.432-3.038v1.9ZM.776,88.81c0,1.189.446,1.106,1.486,1.106H5.2v-.941c0-1.436-.528-2.575-2.146-2.575C1.42,86.4.776,87.241.776,88.81Z" transform="translate(0 -39.563)" fill="#2e2e2e"/>
      <path d="M11.111,58.07,1.717,63.518v.033h9.394v1.04h-9c-1.552,0-1.486.248-1.75,1.651H0V62.759l8.981-5.2v-.033H0v-1.04H11.111Z" transform="translate(0 -27.182)" fill="#2e2e2e"/>
      <path d="M11.111,29.876v6.587H2.245c-1.585,0-1.634.016-1.882,1.568H0V30.124l2.443-.049v.462c-1.238,0-1.667.611-1.667,1.783v1.288c0,.759.017,1.04.858,1.04H4.92v-2c0-.941-.429-1.205-1.271-1.354v-.462H7.116V31.3c-.925,0-1.42.4-1.42,1.354v2H9.377c.908,0,.958-.2.958-1.04V31.775c0-1.123-.561-1.4-1.618-1.486v-.462Z" transform="translate(0 -15.216)" fill="#2e2e2e"/>
      <path d="M2.443,3.781c-1.288,0-1.667.561-1.667,1.8V6.7H11.111V8.519H.776V9.658c0,1.255.363,1.684,1.618,1.783V11.9L0,11.837V3.385l2.443-.066Z" transform="translate(0 -3.319)" fill="#2e2e2e"/>
    </g>
    <g>
      <rect width="38.252" height="1.962" transform="translate(811.199 1126.832)" fill="#2e2e2e"/>
      <rect width="35.31" height="2.716" transform="translate(812.708 1123.059)" fill="#2e2e2e"/>
      <rect width="35.121" height="3.772" transform="translate(812.482 1092.126)" fill="#2e2e2e"/>
      <path d="M67.605,34.634l-18.39,4.3L50.271,40.1H84.94L86,38.935Z" transform="translate(762.437 1050.89)" fill="#2e2e2e"/>
      <path d="M59.435,87.913q-.045-2.779-.151-5.557c-.068-1.744-.181-3.487-.266-5.231-.007-.151-.071-.183-.2-.21a7.344,7.344,0,0,0-3.1,0c-.125.027-.189.06-.2.21-.085,1.744-.2,3.487-.266,5.231q-.109,2.777-.151,5.557c-.021,1.313-.008,2.627.013,3.94.023,1.457.055,2.914.114,4.37.063,1.562.161,3.124.247,4.685.016.3.047.6.07.888a6.184,6.184,0,0,0,3.439,0c.023-.291.054-.589.07-.888.086-1.561.184-3.123.247-4.685.059-1.456.091-2.913.114-4.37C59.443,90.54,59.456,89.226,59.435,87.913Z" transform="translate(758.112 1019.927)" fill="#2e2e2e"/>
      <path d="M95.545,87.913q-.045-2.779-.151-5.557c-.068-1.744-.181-3.487-.266-5.231-.007-.151-.071-.183-.2-.21a7.344,7.344,0,0,0-3.1,0c-.125.027-.189.06-.2.21-.085,1.744-.2,3.487-.266,5.231q-.109,2.777-.151,5.557c-.021,1.313-.008,2.627.013,3.94.023,1.457.055,2.914.114,4.37.063,1.562.161,3.124.247,4.685.016.3.047.6.07.888a6.184,6.184,0,0,0,3.439,0c.023-.291.054-.589.07-.888.086-1.561.183-3.123.247-4.685.059-1.456.091-2.913.114-4.37C95.553,90.54,95.567,89.226,95.545,87.913Z" transform="translate(731.565 1019.927)" fill="#2e2e2e"/>
      <path d="M137.425,87.913q-.045-2.779-.151-5.557c-.068-1.744-.181-3.487-.266-5.231-.007-.151-.071-.183-.2-.21a7.344,7.344,0,0,0-3.1,0c-.125.027-.189.06-.2.21-.085,1.744-.2,3.487-.266,5.231q-.109,2.777-.151,5.557c-.021,1.313-.008,2.627.013,3.94.023,1.457.055,2.914.114,4.37.063,1.562.161,3.124.247,4.685.017.3.047.6.07.888a6.184,6.184,0,0,0,3.439,0c.023-.291.054-.589.07-.888.086-1.561.183-3.123.247-4.685.059-1.456.091-2.913.114-4.37C137.433,90.54,137.446,89.226,137.425,87.913Z" transform="translate(700.776 1019.927)" fill="#2e2e2e"/>
      <path d="M172.68,87.913q-.045-2.779-.151-5.557c-.068-1.744-.181-3.487-.266-5.231-.007-.151-.071-.183-.2-.21a7.344,7.344,0,0,0-3.1,0c-.125.027-.189.06-.2.21-.085,1.744-.2,3.487-.266,5.231q-.109,2.777-.151,5.557c-.021,1.313-.008,2.627.013,3.94.023,1.457.055,2.914.114,4.37.063,1.562.161,3.124.247,4.685.017.3.047.6.07.888a6.184,6.184,0,0,0,3.439,0c.023-.291.054-.589.07-.888.086-1.561.184-3.123.247-4.685.059-1.456.091-2.913.114-4.37C172.688,90.54,172.7,89.226,172.68,87.913Z" transform="translate(674.856 1019.927)" fill="#2e2e2e"/>
    </g>
  </g>
</svg>
