<svg height="43.269" viewBox="0 0 272.685 43.269">
	<path d="M186.731 27.209l-1.248-3.461h-4.242l-1.248 3.461h-1.032l3.311-9.068a5.876 5.876 0 0 0 .283-.982c0-.7-.765-.7-1.281-.782v-.366h3.128l4.06 11.2h-1.731zm-3.428-9.1l-1.78 4.858h3.677zM200.985 27.209l-2.945-5.175h-1.031v5.174h-1.83v-8.934c0-1.6 0-1.664-1.581-1.9v-.363h4.276c2.013 0 4.509.433 4.509 2.978 0 1.68-.965 2.5-2.546 2.745l3.061 5.474h-1.913zm-2.862-10.416c-1.2 0-1.115.449-1.115 1.5v2.959h.948c1.448 0 2.6-.532 2.6-2.163-.004-1.647-.852-2.296-2.433-2.296zM213.489 27.375c-3.827 0-4.908-2.479-4.908-5.923 0-3.211 1.065-5.491 4.644-5.491a10.687 10.687 0 0 1 3.328.5l.1 2.779h-.482a2.466 2.466 0 0 0-.353-1.018 2.764 2.764 0 0 0-2.429-1.464c-2.512 0-2.845 2.762-2.845 4.692 0 2.063.632 4.991 3.228 4.991a4.749 4.749 0 0 0 2.912-.849v1.15a7.506 7.506 0 0 1-3.195.633zM230.371 27.208v-5.44h-4.525v5.44h-1.83v-9c0-1.448-.266-1.481-1.664-1.63v-.367l3.494-.383v5.158h4.525v-4.975h1.834v11.2h-1.83zM238.631 27.208v-.42c1.248 0 1.414-.333 1.414-1.547v-7.153c0-1.215-.166-1.547-1.414-1.547v-.414h4.659v.416c-1.248 0-1.414.349-1.414 1.547v7.155c0 1.2.166 1.547 1.414 1.547v.416h-4.659zM255.443 27.209h-1.448l-3.261-9.068c-.5-1.4-.582-1.5-2.013-1.764v-.366h3.228l3.261 9.117h.033l3.178-9.117h1.081zM272.635 27.209h-6.639v-8.935c0-1.6-.017-1.647-1.581-1.9v-.363h7.97l.05 2.462h-.466c0-1.248-.616-1.68-1.8-1.68h-1.3c-.765 0-1.048.017-1.048.865v3.311h2.019c.948 0 1.215-.433 1.364-1.281h.466v3.494h-.466c0-.932-.4-1.431-1.364-1.431h-2.013v3.711c0 .915.2.965 1.048.965h1.847c1.131 0 1.414-.566 1.5-1.631h.466z"/>
	<path d="M56.179 27.058v-.413c1.238 0 1.4-.33 1.4-1.535v-7.1c0-1.205-.165-1.535-1.4-1.535v-.407h4.622v.412c-1.238 0-1.4.347-1.4 1.535v7.1c0 1.189.165 1.535 1.4 1.535v.408zM74.322 27.063l-5.448-9.394h-.033v9.394h-1.04v-9c0-1.552-.247-1.486-1.651-1.75v-.361h3.484l5.2 8.981h.033v-8.981h1.04v11.111zM90.649 18.395c0-1.288-.561-1.667-1.8-1.667h-1.117v10.335h-1.816V16.728h-1.139c-1.255 0-1.684.363-1.783 1.618h-.462l.061-2.394h8.453l.066 2.443zM104.335 27.063h-6.587v-8.866c0-1.585-.016-1.634-1.568-1.882v-.363h7.908l.049 2.443h-.462c0-1.238-.611-1.667-1.783-1.667h-1.288c-.759 0-1.04.017-1.04.858v3.286h2c.941 0 1.2-.429 1.354-1.271h.462v3.467h-.462c0-.925-.4-1.42-1.354-1.42h-2v3.681c0 .908.2.958 1.04.958h1.832c1.123 0 1.4-.561 1.486-1.618h.462zM117.625 27.063l-2.922-5.135h-1.024v5.134h-1.816v-8.865c0-1.585 0-1.651-1.568-1.882v-.363h4.243c2 0 4.474.429 4.474 2.955 0 1.667-.958 2.476-2.526 2.724l3.038 5.432h-1.9zm-2.84-10.335c-1.189 0-1.106.446-1.106 1.486v2.938h.941c1.436 0 2.575-.528 2.575-2.146 0-1.634-.841-2.278-2.41-2.278zM133.144 27.063l-5.448-9.394h-.033v9.394h-1.04v-9c0-1.552-.248-1.486-1.651-1.75v-.361h3.483l5.2 8.981h.033v-8.981h1.04v11.111zM149.372 27.063h-6.587v-8.866c0-1.585-.016-1.634-1.568-1.882v-.363h7.907l.049 2.443h-.462c0-1.238-.611-1.667-1.783-1.667h-1.288c-.759 0-1.04.017-1.04.858v3.286h2c.941 0 1.205-.429 1.354-1.271h.462v3.467h-.468c0-.925-.4-1.42-1.354-1.42h-2v3.681c0 .908.2.958 1.04.958h1.839c1.123 0 1.4-.561 1.486-1.618h.462zM163.57 18.395c0-1.288-.561-1.667-1.8-1.667h-1.119v10.335h-1.819V16.728h-1.139c-1.255 0-1.684.363-1.783 1.618h-.459l.063-2.394h8.452l.066 2.443z"/>
	<path d="M0 41.308h38.252v1.962H0zM1.509 37.535h35.31v2.716H1.509zM1.283 6.602h35.121v3.772H1.283zM18.843 0L.453 4.3l1.056 1.166h34.669l1.06-1.165zM6.348 22.316q-.045-2.779-.151-5.557c-.068-1.744-.181-3.487-.266-5.231-.007-.151-.071-.183-.2-.21a7.344 7.344 0 0 0-3.1 0c-.125.027-.189.06-.2.21-.085 1.744-.2 3.487-.266 5.231q-.109 2.777-.151 5.557c-.021 1.313-.008 2.627.013 3.94.023 1.457.055 2.914.114 4.37.063 1.562.161 3.124.247 4.685.016.3.047.6.07.888a6.184 6.184 0 0 0 3.439 0c.023-.291.054-.589.07-.888.086-1.561.184-3.123.247-4.685.059-1.456.091-2.913.114-4.37.028-1.313.041-2.627.02-3.94zM15.911 22.316q-.045-2.779-.151-5.557c-.068-1.744-.181-3.487-.266-5.231-.007-.151-.071-.183-.2-.21a7.344 7.344 0 0 0-3.1 0c-.125.027-.189.06-.2.21-.085 1.744-.2 3.487-.266 5.231q-.109 2.777-.151 5.557c-.021 1.313-.008 2.627.013 3.94.023 1.457.055 2.914.114 4.37.063 1.562.161 3.124.247 4.685.016.3.047.6.07.888a6.184 6.184 0 0 0 3.439 0c.023-.291.054-.589.07-.888.086-1.561.183-3.123.247-4.685.059-1.456.091-2.913.114-4.37.028-1.313.042-2.627.02-3.94zM27.002 22.316q-.045-2.779-.151-5.557c-.068-1.744-.181-3.487-.266-5.231-.007-.151-.071-.183-.2-.21a7.344 7.344 0 0 0-3.1 0c-.125.027-.189.06-.2.21-.085 1.744-.2 3.487-.266 5.231q-.109 2.777-.151 5.557c-.021 1.313-.008 2.627.013 3.94.023 1.457.055 2.914.114 4.37.063 1.562.161 3.124.247 4.685.017.3.047.6.07.888a6.184 6.184 0 0 0 3.439 0c.023-.291.054-.589.07-.888.086-1.561.183-3.123.247-4.685.059-1.456.091-2.913.114-4.37.028-1.313.041-2.627.02-3.94zM36.337 22.316q-.045-2.779-.151-5.557c-.068-1.744-.181-3.487-.266-5.231-.007-.151-.071-.183-.2-.21a7.344 7.344 0 0 0-3.1 0c-.125.027-.189.06-.2.21-.085 1.744-.2 3.487-.266 5.231q-.109 2.777-.151 5.557c-.021 1.313-.008 2.627.013 3.94.023 1.457.055 2.914.114 4.37.063 1.562.161 3.124.247 4.685.017.3.047.6.07.888a6.184 6.184 0 0 0 3.439 0c.023-.291.054-.589.07-.888.086-1.561.184-3.123.247-4.685.059-1.456.091-2.913.114-4.37.028-1.313.04-2.627.02-3.94z"/>
</svg>
