<svg height="42" viewBox="0 0 1046 444.46">
  <defs>
    <filter id="b" width="472.556" height="472.551" x="-10" y="-11" filterUnits="userSpaceOnUse">
      <feOffset dy="3"/>
      <feGaussianBlur result="blur" stdDeviation="11"/>
      <feFlood flood-opacity=".2"/>
      <feComposite in2="blur" operator="in"/>
      <feComposite in="SourceGraphic"/>
    </filter>
  </defs>
  <g>
    <g filter="url(#b)" transform="translate(-.003 .001)">
      <path fill="#8884" d="M48.41 320.56a202.754 202.754 0 0 1-24.5-117.43c8.83-95.86 86.07-173.73 181.88-183.1a203.331 203.331 0 0 1 222.83 221.8c-8.73 93.46-82.67 169.98-175.77 181.98a202.23 202.23 0 0 1-128.75-26.03L23.03 425.53z"/>
    </g>
    <g transform="translate(1.327 5.781)">
      <path fill="#b0b0b0" d="M339.6 126.07a147.11 147.11 0 0 0-51.01-40.72L224.95 217.5l142.99-32.64a146.082 146.082 0 0 0-28.34-58.79z"/>
      <path fill="#ababab" d="M224.95 217.5v146.64a146.332 146.332 0 0 0 114.65-55.21z"/>
      <path fill="#848484" d="M110.31 308.93a146.332 146.332 0 0 0 114.65 55.21V217.5z"/>
      <path fill="#707070" d="M224.95 70.86a146.168 146.168 0 0 0-63.64 14.49l63.64 132.15 63.64-132.15a145.994 145.994 0 0 0-63.64-14.49z"/>
      <path fill="#cdcdcd" d="M367.94 184.86L224.95 217.5l114.65 91.43a146.8 146.8 0 0 0 28.34-124.07z"/>
      <path fill="#656565" d="M161.31 85.35a146.986 146.986 0 0 0-79.36 99.51l155.613 46.653z"/>
      <path fill="#545454" d="M81.96 184.86a146.5 146.5 0 0 0 28.35 124.07l114.65-91.43z"/>
      <circle cx="64.52" cy="64.52" r="64.52" transform="translate(161.28 153.74)"/>
      <circle cx="29.33" cy="29.33" r="29.33" fill="#fff" transform="translate(154.68 155.53)"/>
    </g>
    <g class="fill-current inline-icon">
      <path d="M502.017 108.461c0-18.4 14.18-32.21 33.35-32.21s32.97 13.8 32.97 32.21c0 18.02-13.8 32.2-32.97 32.2s-33.35-14.18-33.35-32.2zm5.37 257.25v-191.69h55.59v191.69z"/>
      <path d="M664.567 365.711h-55.59v-191.69h53.67v33.36c12.65-23.77 34.5-37.19 61.72-37.19 3.45 0 7.28 0 9.58.77v56.74a60.463 60.463 0 0 0-19.94-3.07c-31.44 0-49.46 15.72-49.46 44.09v96.99z"/>
      <path d="M758.117 108.461c0-18.4 14.18-32.21 33.35-32.21s32.97 13.8 32.97 32.21c0 18.02-13.8 32.2-32.97 32.2s-33.35-14.18-33.35-32.2zm5.36 257.25v-191.69h55.59v191.69z"/>
      <path d="M941.747 369.541c-49.46 0-87.03-24.54-87.03-67.09h53.67c0 18.78 14.18 27.99 32.97 27.99 16.87 0 27.22-6.13 27.22-18.4 0-37.57-110.41-3.83-110.41-82.81 0-36.8 33.74-59.04 77.83-59.04 47.54 0 83.58 28.37 83.58 64.79h-53.67c0-14.57-12.65-25.69-29.52-25.69-14.95 0-25.3 6.52-25.3 17.25 0 34.12 111.95 3.07 111.95 82.43-.01 37.95-34.9 60.57-81.29 60.57z"/>
    </g>
  </g>
</svg>
