<svg xmlns="http://www.w3.org/2000/svg" width="77.549" height="76.43" viewBox="0 0 77.549 76.43">
  <g id="svgg" transform="translate(0 3)">
    <g id="g4" transform="translate(0 -3)">
      <path id="path3113" d="M38.771,5.916A9.057,9.057,0,0,0,29.1.085,9.356,9.356,0,0,0,20.946,11.6a9.516,9.516,0,0,0-11.711.83c-5.363,5.376-2.494,12.646.454,14.39a9.251,9.251,0,0,0-9.52,7.638C-1.039,41.588,4.4,45.744,9.69,45.744H68.383c6.121,0,9.517-5.295,9.136-10.289A9.134,9.134,0,0,0,67.7,26.974c2.718-1.516,6.348-8.64.828-14.239C64.148,8.567,58.563,10.083,56.6,11.9,57.658,8.419,55.922,1.223,48.815.084A12.758,12.758,0,0,0,47.4,0a9.122,9.122,0,0,0-8.629,5.916" transform="translate(0.001)" fill="none"/>
      <path id="path3115" d="M58.431,86.016a8.1,8.1,0,0,0,1.359,12.877l22.285,15.289L71.27,89.427c-2.264-5.842-8.458-7.116-12.839-3.411" transform="translate(-48.217 -72.452)" fill="#2e2e2e"/>
      <path id="path3117" d="M169.288,10.9a7.944,7.944,0,0,0-6.641,10.975l11.175,26.357,3.927-27.722c.909-6.888-4.3-10.068-8.462-9.609" transform="translate(-139.89 -9.374)" fill="#2e2e2e"/>
      <path id="path3119" d="M289.61,19.08h2.113s1.129,0,1.282.532c-.832.679-3.1.764-2.795,4.392l3.553,23.852,11.1-26.426a8.038,8.038,0,0,0-6.723-10.979c-.2-.014-.4-.026-.6-.026-3.794,0-8.142,2.757-7.93,8.655" transform="translate(-250.006 -9)" fill="#2e2e2e"/>
      <path id="path3121" d="M331.657,90.071l-10.5,24.458,22.279-15.37a7.994,7.994,0,0,0-4.33-14.746c-2.769,0-5.733,1.468-7.451,5.658" transform="translate(-277.248 -72.872)" fill="#2e2e2e"/>
      <path id="path3123" d="M333.758,208.562l-20.923,14.614H338.6c5.285,0,8.682-5.45,7.172-10.45a8.052,8.052,0,0,0-7.476-5.614,8.171,8.171,0,0,0-4.535,1.451" transform="translate(-270.062 -178.794)" fill="#2e2e2e"/>
      <path id="path3125" d="M18.845,222.713H44.227L23.3,208.1c-4.835-3.106-10.271-1.289-12.234,3.866a8.153,8.153,0,0,0,7.78,10.748" transform="translate(-9.231 -178.331)" fill="#2e2e2e"/>
      <path id="path3127" d="M241.992,377.668H246.7a3.258,3.258,0,0,1,3,3.251,3.413,3.413,0,0,1-3.07,3.392h-4.639v-6.643m-.072-10.421H245.8a2.947,2.947,0,0,1,2.891,2.868,3.078,3.078,0,0,1-2.717,3.183h-4.05v-6.051m-5.3-4.337v25.734h12.486a7.042,7.042,0,0,0,6.487-6.852,7.362,7.362,0,0,0-4.326-6.852,6.448,6.448,0,0,0,2.933-5.63c-.14-5.175-4.92-6.4-6.559-6.4H236.622" transform="translate(-204.27 -313.291)" fill="#2e2e2e"/>
      <path id="polygon3129" d="M62.187,382.036V367.214l16.184,15.8V356.3H72.933v14.443L56.745,355.256v26.78Z" transform="translate(-48.986 -306.684)" fill="#2e2e2e"/>
      <path id="path3131" d="M381.784,371.138c.136,8.138,5.984,14.222,13.5,14.222a15.482,15.482,0,0,0,5.579-1.077V379.04a9.34,9.34,0,0,1-4.871,1.377c-4.549,0-8.841-3.366-8.663-9.488a8.852,8.852,0,0,1,8.754-8.4,8.613,8.613,0,0,1,4.78,1.472v-5.1a13.822,13.822,0,0,0-19.079,12.235" transform="translate(-329.584 -308.931)" fill="#2e2e2e"/>
    </g>
  </g>
</svg>
