<svg xmlns="http://www.w3.org/2000/svg" width="236.072" height="63.855" viewBox="0 0 236.072 63.855">
  <g id="logo-kmari-eng" style="isolation: isolate">
    <g id="Isolatiemodus" transform="translate(0 0)">
      <g id="Gruppe_153" data-name="Gruppe 153" transform="translate(59.879 20.783)">
        <path id="Pfad_158" data-name="Pfad 158" d="M61.9,66.441a1.287,1.287,0,0,0,1.084-1.422V55.85L61.8,55.477v-.41a20.476,20.476,0,0,1,3.723-.277c2.819,0,4.169,1.1,4.169,3.157A3.516,3.516,0,0,1,67,61.513l2.639,3.53a3.526,3.526,0,0,0,1.735,1.265v.349a2.458,2.458,0,0,1-1.422.41c-.807,0-1.325-.313-2-1.325l-2.47-3.735h-.88v3.94l1.181.3v.41a6.981,6.981,0,0,1-2.133.313,7.286,7.286,0,0,1-1.759-.193v-.337Zm3.434-5.313a2.587,2.587,0,0,0,2.651-2.892,2.291,2.291,0,0,0-2.578-2.41,6.087,6.087,0,0,0-.807.072v5.229Z" transform="translate(-61.8 -53.392)" fill="#2e2e2e"/>
        <path id="Pfad_159" data-name="Pfad 159" d="M74.558,57.26a4.042,4.042,0,0,1,4.072,4.313c0,3.084-2.145,5.024-4.373,5.024a4.007,4.007,0,0,1-4.1-4.313C70.172,59.212,72.268,57.26,74.558,57.26Zm-.181,8.253c1.253,0,2.554-1.217,2.554-3.771,0-2.181-1.181-3.4-2.506-3.4-1.289,0-2.554,1.289-2.554,3.759C71.871,64.356,73.052,65.513,74.377,65.513Z" transform="translate(-60.088 -52.887)" fill="#2e2e2e"/>
        <path id="Pfad_160" data-name="Pfad 160" d="M81.167,65.705l-2.952-7.337-.711-.542V57.38h3.434v.446l-1.012.446,1.976,5.7h.024L83.7,58.332l-1.048-.506V57.38h2.807v.446l-.47.41-2.639,7.289c-1.47,4.108-2.952,5.325-3.9,5.325-.747,0-1.145-.337-1.145-1.458a3.668,3.668,0,0,0,.843.072c.783,0,1.928-.892,2.687-2.916Z" transform="translate(-58.625 -52.862)" fill="#2e2e2e"/>
        <path id="Pfad_161" data-name="Pfad 161" d="M89.545,61.453v-.506c0-2.012-.482-2.446-1.663-2.446a4,4,0,0,0-2.807,1.217,2.722,2.722,0,0,1-.06-.566c0-1.193.88-1.892,3.06-1.892,1.892,0,3.012.952,3.012,2.506,0,.41-.06,1.349-.072,1.892l-.06,3.024a2.406,2.406,0,0,0,.747.952,4.2,4.2,0,0,1-1.265.952,2.508,2.508,0,0,1-.855-.916,3.851,3.851,0,0,1-2.518.892,2.156,2.156,0,0,1-2.374-2.072C84.69,62.862,86.485,61.453,89.545,61.453Zm-1.8,4a3.971,3.971,0,0,0,1.8-.506V62.332c-2.108,0-3.253.88-3.253,1.892C86.292,64.971,86.8,65.453,87.75,65.453Z" transform="translate(-57.112 -52.887)" fill="#2e2e2e"/>
        <path id="Pfad_162" data-name="Pfad 162" d="M91.879,66.726c.482-.181.988-.554.988-1.012V54.883l-1.217-.506v-.41a8.927,8.927,0,0,1,2.241-.337h.6l-.1,1.048V66.257l1.048.277v.349a5.938,5.938,0,0,1-2.169.313,4.938,4.938,0,0,1-1.4-.169v-.3Z" transform="translate(-55.686 -53.63)" fill="#2e2e2e"/>
        <path id="Pfad_163" data-name="Pfad 163" d="M99.256,66.447c.819-.229,1.084-.639,1.084-1.639V55.82l-1.181-.313v-.542a15.91,15.91,0,0,1,2.06-.133h.687l5.193,8.53.036-.024V55.772l-1.193-.3v-.4a6.194,6.194,0,0,1,1.867-.313,4.651,4.651,0,0,1,1.566.2V55.3c-.819.265-1.06.6-1.06,1.759v9.783l-.88.2-5.9-9.735-.024.024v8.626l1.145.3v.41a4.675,4.675,0,0,1-1.7.313,5.823,5.823,0,0,1-1.7-.193v-.349Z" transform="translate(-54.148 -53.399)" fill="#2e2e2e"/>
        <path id="Pfad_164" data-name="Pfad 164" d="M112.686,57.27c2.012,0,3.229,1.349,3.229,3.494,0,.349,0,.723-.024,1.193h-5.506c0,2.1,1.217,3.3,2.759,3.3a4.867,4.867,0,0,0,2.639-.807,1.626,1.626,0,0,1,.072.482c0,.843-1.229,1.627-3.217,1.627-2.132,0-3.867-1.663-3.867-4.277C108.782,59.041,110.746,57.27,112.686,57.27Zm1.735,3.723c0-1.831-.783-2.711-1.892-2.711-1.024,0-2.108,1.229-2.108,2.711Z" transform="translate(-52.18 -52.884)" fill="#2e2e2e"/>
        <path id="Pfad_165" data-name="Pfad 165" d="M116.8,61.409l.06-2.482H115.84v-.614l2.012-2,.614-.072-.072,1.687h2.458l-.133,1.012h-2.386l-.036,2.349c-.024.783-.024,1.494-.024,2.181,0,1.518.446,2.036,1.145,2.036a2.243,2.243,0,0,0,1.386-.482L121,65.1c-.072,1.1-.723,1.663-2.012,1.663-1.494,0-2.217-.783-2.217-2.6C116.744,63.252,116.78,62.264,116.8,61.409Z" transform="translate(-50.732 -53.095)" fill="#2e2e2e"/>
        <path id="Pfad_166" data-name="Pfad 166" d="M121.069,66.726c.506-.181.988-.554.988-1.012V54.883l-1.217-.506v-.41a8.227,8.227,0,0,1,2.241-.337h.6l-.1,1.048v4.47a3.689,3.689,0,0,1,2.711-1.024c1.59,0,2.614.988,2.614,2.916v5.229l.976.277V66.9a5.432,5.432,0,0,1-1.976.313,3.619,3.619,0,0,1-1.193-.169v-.313a1.168,1.168,0,0,0,.675-1.229V61.931c0-1.831-.747-2.518-1.9-2.518a3.451,3.451,0,0,0-1.892.578v6.277l1.048.277V66.9a5.9,5.9,0,0,1-2.169.313,4.991,4.991,0,0,1-1.4-.169v-.313Z" transform="translate(-49.707 -53.63)" fill="#2e2e2e"/>
        <path id="Pfad_167" data-name="Pfad 167" d="M133.284,57.27c2.012,0,3.229,1.349,3.229,3.494,0,.349,0,.723-.012,1.193h-5.506c0,2.1,1.217,3.3,2.759,3.3a4.867,4.867,0,0,0,2.639-.807,1.626,1.626,0,0,1,.072.482c0,.843-1.229,1.627-3.217,1.627-2.133,0-3.867-1.663-3.867-4.277C129.38,59.041,131.332,57.27,133.284,57.27Zm1.735,3.723c0-1.831-.783-2.711-1.892-2.711-1.024,0-2.108,1.229-2.108,2.711Z" transform="translate(-47.958 -52.884)" fill="#2e2e2e"/>
        <path id="Pfad_168" data-name="Pfad 168" d="M136.577,65.975c.482-.181.988-.554.988-1.012V58.649l-1.2-.506v-.41A8.852,8.852,0,0,1,138.6,57.4h.446v1.3h.012l.518-.578a2.171,2.171,0,0,1,1.639-.819c.651,0,.976.277.976.807a2.443,2.443,0,0,1-.3,1.12,1.917,1.917,0,0,0-1.157-.434,2.342,2.342,0,0,0-1.639.771V65.5l1.289.277v.349a6.364,6.364,0,0,1-2.313.313,5.254,5.254,0,0,1-1.494-.169v-.3Z" transform="translate(-46.529 -52.878)" fill="#2e2e2e"/>
        <path id="Pfad_169" data-name="Pfad 169" d="M141.8,66.726c.482-.181.988-.554.988-1.012V54.883l-1.217-.506v-.41a8.927,8.927,0,0,1,2.241-.337h.6l-.1,1.048V66.257l1.048.277v.349a5.938,5.938,0,0,1-2.169.313,4.938,4.938,0,0,1-1.4-.169Z" transform="translate(-45.462 -53.63)" fill="#2e2e2e"/>
        <path id="Pfad_170" data-name="Pfad 170" d="M150.615,61.453v-.506c0-2.012-.482-2.446-1.663-2.446a4,4,0,0,0-2.807,1.217,2.721,2.721,0,0,1-.06-.566c0-1.193.88-1.892,3.06-1.892,1.892,0,3.012.952,3.012,2.506,0,.41-.06,1.349-.072,1.892l-.06,3.024a2.406,2.406,0,0,0,.747.952,4.2,4.2,0,0,1-1.265.952,2.508,2.508,0,0,1-.855-.916,3.851,3.851,0,0,1-2.518.892,2.156,2.156,0,0,1-2.373-2.072C145.76,62.862,147.555,61.453,150.615,61.453Zm-1.783,4a3.971,3.971,0,0,0,1.8-.506V62.332c-2.108,0-3.253.88-3.253,1.892C147.374,64.971,147.88,65.453,148.832,65.453Z" transform="translate(-44.603 -52.887)" fill="#2e2e2e"/>
        <path id="Pfad_171" data-name="Pfad 171" d="M152.959,65.964c.482-.181.988-.554.988-1.012V58.639l-1.217-.506v-.41a8.853,8.853,0,0,1,2.241-.337h.446V58.4a3.978,3.978,0,0,1,2.759-1.048c1.554,0,2.614.988,2.614,2.916v5.229l.976.277v.349a5.274,5.274,0,0,1-1.964.313,3.763,3.763,0,0,1-1.217-.169v-.3a1.138,1.138,0,0,0,.675-1.229V61.169c0-1.831-.771-2.518-1.867-2.518a3.42,3.42,0,0,0-1.928.578v6.277l1.048.277v.349a5.938,5.938,0,0,1-2.169.313,4.938,4.938,0,0,1-1.4-.169v-.313Z" transform="translate(-43.176 -52.868)" fill="#2e2e2e"/>
        <path id="Pfad_172" data-name="Pfad 172" d="M165.726,58.04a6.434,6.434,0,0,1,1.289.133V54.883l-1.265-.506v-.41a9.348,9.348,0,0,1,2.313-.337h.6l-.108,1.048v10.7a2.535,2.535,0,0,0,.711,1.084,6.081,6.081,0,0,1-1.313.88,3.279,3.279,0,0,1-.892-1.12,3.748,3.748,0,0,1-2.386,1.06c-1.892,0-3.4-1.566-3.4-4.048C161.256,59.871,163.3,58.04,165.726,58.04Zm1.313,7.434V59.293a4.633,4.633,0,0,0-1.361-.2c-1.59,0-2.783,1.253-2.783,3.843,0,2.036,1.06,3.133,2.241,3.133A3.28,3.28,0,0,0,167.039,65.473Z" transform="translate(-41.425 -53.63)" fill="#2e2e2e"/>
        <path id="Pfad_173" data-name="Pfad 173" d="M169.346,64.274a3.715,3.715,0,0,0,2.639,1.181c1.048,0,1.59-.506,1.59-1.157s-.374-1.06-1.6-1.59l-.928-.4A2.458,2.458,0,0,1,169.358,60a2.967,2.967,0,0,1,3.253-2.747c1.494,0,2.1.446,2.1,1.157a3.4,3.4,0,0,1-.1.783,4.062,4.062,0,0,0-2.133-.711c-1.193,0-1.759.518-1.759,1.157,0,.675.337,1.048,1.458,1.47l1.012.4c1.349.518,1.855,1.217,1.855,2.313,0,1.434-1.386,2.747-3.47,2.747-1.639,0-2.374-.518-2.374-1.53A1.345,1.345,0,0,1,169.346,64.274Z" transform="translate(-39.803 -52.889)" fill="#2e2e2e"/>
        <path id="Pfad_174" data-name="Pfad 174" d="M178.4,66.447c.819-.229,1.084-.639,1.084-1.639V55.82l-1.181-.313v-.542a15.909,15.909,0,0,1,2.06-.133h.687l5.193,8.53.036-.024V55.772l-1.193-.3v-.4a6.194,6.194,0,0,1,1.867-.313,4.651,4.651,0,0,1,1.566.2V55.3c-.819.265-1.06.6-1.06,1.759v9.783l-.88.2-5.9-9.735-.024.024v8.626l1.145.3v.41a4.675,4.675,0,0,1-1.7.313,5.823,5.823,0,0,1-1.7-.193Z" transform="translate(-37.939 -53.399)" fill="#2e2e2e"/>
        <path id="Pfad_175" data-name="Pfad 175" d="M192.705,61.453v-.506c0-2.012-.482-2.446-1.663-2.446a4,4,0,0,0-2.807,1.217,2.722,2.722,0,0,1-.06-.566c0-1.193.88-1.892,3.06-1.892,1.892,0,3.012.952,3.012,2.506,0,.41-.06,1.349-.072,1.892l-.06,3.024a2.406,2.406,0,0,0,.747.952,4.2,4.2,0,0,1-1.265.952,2.508,2.508,0,0,1-.855-.916,3.851,3.851,0,0,1-2.518.892,2.156,2.156,0,0,1-2.373-2.072C187.85,62.862,189.645,61.453,192.705,61.453Zm-1.8,4a3.971,3.971,0,0,0,1.8-.506V62.332c-2.108,0-3.253.88-3.253,1.892C189.452,64.971,189.958,65.453,190.91,65.453Z" transform="translate(-35.983 -52.887)" fill="#2e2e2e"/>
        <path id="Pfad_176" data-name="Pfad 176" d="M194.781,58.37l-.771-.542v-.446h3.566v.446l-1.06.446,2.012,5.916h.024l2.072-5.867-1.06-.506V57.37h2.879v.446l-.518.434L198.6,66.49l-.639.036Z" transform="translate(-34.721 -52.864)" fill="#2e2e2e"/>
        <path id="Pfad_177" data-name="Pfad 177" d="M205.137,65.705l-2.952-7.337-.711-.542V57.38h3.434v.446l-1.012.446,1.976,5.7h.024l1.771-5.639-1.048-.506V57.38h2.807v.446l-.47.41-2.639,7.289c-1.47,4.108-2.952,5.325-3.9,5.325-.747,0-1.145-.337-1.145-1.458a3.667,3.667,0,0,0,.843.072c.783,0,1.928-.892,2.687-2.916Z" transform="translate(-33.234 -52.862)" fill="#2e2e2e"/>
      </g>
      <g id="Gruppe_177" data-name="Gruppe 177" transform="translate(0)">
        <path id="Vereinigungsmenge_14" data-name="Vereinigungsmenge 14" d="M15.24,63.7c-.856-1.9-4.518-4.543-7.386-6.759a15.282,15.282,0,0,1-4.674-5.314l-1.41,1.64a.327.327,0,0,1-.313.1.331.331,0,0,1-.277-.216A16.144,16.144,0,0,1,0,47.169a17.36,17.36,0,0,1,1.06-5.687.36.36,0,0,1,.687.024A17.369,17.369,0,0,0,7.421,49.88a.39.39,0,0,1,.12.277.361.361,0,0,1-.361.361H4.891a13.1,13.1,0,0,0,5.072,4.265,1.478,1.478,0,0,1,.651-.591,1.185,1.185,0,0,1,.807-.084,1.981,1.981,0,0,1,.807.855,2.257,2.257,0,0,0,.771.868,1.222,1.222,0,0,0,1.373-.483,2.118,2.118,0,0,1-.77-.879,2.054,2.054,0,0,0-.759-.891,1.192,1.192,0,0,1,.614-.47,1.164,1.164,0,0,1,.4-.072V40.494a2.954,2.954,0,0,1-.277.494,1.8,1.8,0,0,0-.361,1.12,1.452,1.452,0,0,1-.784-.361,1.241,1.241,0,0,1-.4-.771,1.709,1.709,0,0,1,.543-1.036,2.874,2.874,0,0,0,.65-.975,1.11,1.11,0,0,1,.568.337.79.79,0,0,1,.06.1v-7.29a1.3,1.3,0,0,0,.313-.2,1.03,1.03,0,0,0,.3-.6,2.347,2.347,0,0,1-1.012-.554,1.948,1.948,0,0,0-1.06-.506l-2.772-.483V26.325C10,26.1,12.072,24.807,12.4,24.614l.71.133a3.878,3.878,0,0,0-.686,5.325,1.536,1.536,0,0,1,.4-.542,1.174,1.174,0,0,1,.723-.29.279.279,0,0,1,.1.024,2.388,2.388,0,0,1-.518-1.493,2.444,2.444,0,0,1,.723-1.723V22.277c0-.566.759-1.024,1.7-1.024s1.7.458,1.7,1.024v2.012a.735.735,0,0,0-.939.337.726.726,0,0,0,.325.977,2.423,2.423,0,0,1-1.084,4.589l-.253.024a.743.743,0,0,0-.795.687.7.7,0,0,0,.65.759l.4.012a3.78,3.78,0,0,0,1.7-.386V42.314a1.384,1.384,0,0,1,.821.241,1.316,1.316,0,0,1,.506.674,1.831,1.831,0,0,1-.362,1.121,2.812,2.812,0,0,0-.434,1.072.992.992,0,0,1-.518-.168V51.4c-.048.025-.1.049-.133.073a1.245,1.245,0,0,0-.421.543c.036.023.072.036.108.06.012,0,.025.011.049.024a2.4,2.4,0,0,1,.759.639,1.8,1.8,0,0,0,.975.663,1.377,1.377,0,0,1-.566.639,1.283,1.283,0,0,1-.784.181v.6a.928.928,0,0,0,1.134.9,13,13,0,0,0,7.807-5.2H23.891a.361.361,0,0,1-.361-.361.343.343,0,0,1,.131-.277,17.365,17.365,0,0,0,5.675-8.373.359.359,0,0,1,.686-.024,17.354,17.354,0,0,1,1.049,5.687,16.214,16.214,0,0,1-1.18,5.976.349.349,0,0,1-.277.216.359.359,0,0,1-.326-.1l-1.41-1.64A15.313,15.313,0,0,1,23.2,56.94c-2.868,2.217-6.543,4.856-7.386,6.759a.346.346,0,0,1-.578,0Zm.3-4.555a20.391,20.391,0,0,1,4.182-1.53h-.012A13.6,13.6,0,0,0,29.1,45.843a13.862,13.862,0,0,1-11.29,10.821,1.921,1.921,0,0,1-2.228-1.592,1.339,1.339,0,0,1-.435.265,1.244,1.244,0,0,1-.662.037,1.694,1.694,0,0,1-1.964,1.132A13.7,13.7,0,0,1,1.987,45.832a13.632,13.632,0,0,0,9.386,11.782h-.012A20.4,20.4,0,0,1,15.541,59.144Zm-.975-6.4a1.258,1.258,0,0,0-.362.349,2.038,2.038,0,0,1,.759.868,1.916,1.916,0,0,0,.8.867,1.294,1.294,0,0,0,.819-.072,1.26,1.26,0,0,0,.614-.554,1.969,1.969,0,0,1-.879-.784,2.32,2.32,0,0,0-.771-.795V32.639a5.229,5.229,0,0,1-.975-.1Zm0-29.784h.011v3.82a2.482,2.482,0,0,0,.976.181v-4a.494.494,0,0,0-.987,0Zm4.205,28.88a2.784,2.784,0,0,0-1.024-.566,1.1,1.1,0,0,1,.289-.578.959.959,0,0,1,.578-.265,2.9,2.9,0,0,1,1.109.325,1.671,1.671,0,0,0,1.18.157,1.429,1.429,0,0,1-.29.891,1.394,1.394,0,0,1-.758.506A1.769,1.769,0,0,1,18.771,51.843Zm.313-2.928a.934.934,0,0,1,.277-.481,4.072,4.072,0,0,1,1.061-.446,1.505,1.505,0,0,0,.987-.675,1.407,1.407,0,0,1,.373.9,1.352,1.352,0,0,1-.277.952,1.547,1.547,0,0,1-1.168.265,4.12,4.12,0,0,0-1.157.024A.883.883,0,0,1,19.084,48.915Zm-.374-1.928a1,1,0,0,1-.108-.626,2.746,2.746,0,0,1,.626-.977,1.8,1.8,0,0,0,.518-1.06,1.337,1.337,0,0,1,.724.506,1.3,1.3,0,0,1,.288.856,1.743,1.743,0,0,1-.746.915,2.7,2.7,0,0,0-.844.8A1.022,1.022,0,0,1,18.71,46.987Zm-8.276-8.024a1.635,1.635,0,0,1-.072-.891,1.72,1.72,0,0,1,.927-.734,2.826,2.826,0,0,0,.976-.614.979.979,0,0,1,.349,1.155,2.738,2.738,0,0,1-.819.808,1.91,1.91,0,0,0-.759.927A1.578,1.578,0,0,1,10.434,38.963Zm-.64-3.409a1.312,1.312,0,0,1,.314-.843,1.688,1.688,0,0,1,1.156-.266,3,3,0,0,0,1.145-.12,1.172,1.172,0,0,1,.1.639,1.153,1.153,0,0,1-.3.554,3.174,3.174,0,0,1-1.109.373,1.565,1.565,0,0,0-1.036.518A1.149,1.149,0,0,1,9.794,35.554Zm1.928-2.494a1.8,1.8,0,0,0-1.2,0,1.359,1.359,0,0,1,.145-.879,1.277,1.277,0,0,1,.651-.614,1.68,1.68,0,0,1,1.144.253,3.088,3.088,0,0,0,1.108.373,1.149,1.149,0,0,1-.18.626.989.989,0,0,1-.518.386c-.075,0-.154.008-.234.008A2.6,2.6,0,0,1,11.722,33.06Zm10.025-1.023v-.121l-.555-.1V28.386c.363-.23,2.446-1.518,2.76-1.711h.012l.614-.386a.646.646,0,0,1,.891.2.631.631,0,0,1,.048.1L23,28.145a.468.468,0,0,0-.228.409h.023v3.988a.629.629,0,0,1-.4.134A.637.637,0,0,1,21.747,32.037Zm2,.216V28.831c.362-.229,2.446-1.518,2.759-1.711l1.506.253V31l-2.53,1.554Zm-4.578-.686v-.12l-1.723-.3a3.863,3.863,0,0,0,1.976-3.373,3.959,3.959,0,0,0-.529-1.988l2.517.446.614-.386a.646.646,0,0,1,.892.205c.012.036.024.06.037.1L20.433,27.7a.469.469,0,0,0-.229.409v3.976a.7.7,0,0,1-.385.133A.649.649,0,0,1,19.168,31.567ZM7.626,29.53v-.11l-.568-.1V25.892c.375-.229,2.459-1.518,2.772-1.711h.013l.614-.386a.644.644,0,0,1,.891.205.223.223,0,0,1,.048.1L8.879,25.651a.468.468,0,0,0-.228.409h.011v3.989a.671.671,0,0,1-.386.133A.656.656,0,0,1,7.626,29.53Zm-2.579-.446v-.12l-1.578-.277V25.072L6,23.507l1.265.216.626-.386a.661.661,0,0,1,.891.217.378.378,0,0,1,.049.1L6.312,25.205a.472.472,0,0,0-.228.41V29.6a.623.623,0,0,1-.386.133A.649.649,0,0,1,5.047,29.085Zm4.964-13.807c0-.53,2.47-.867,5.53-.867s5.53.337,5.53.867-2.47.867-5.53.867S10.011,15.8,10.011,15.277Zm10.326-1.735a.651.651,0,0,1,.663-.6.635.635,0,0,1,.662.6.643.643,0,0,1-.662.6A.635.635,0,0,1,20.337,13.542Zm-10.927,0a.633.633,0,0,1,.662-.591.626.626,0,0,1,.663.591.666.666,0,0,1-1.325,0ZM18.4,13.7c-.518-.037-.844-.35-.807-.711s.41-.6.928-.554.843.337.807.71c-.034.331-.349.561-.8.561C18.484,13.705,18.441,13.7,18.4,13.7Zm-6.65-.555c-.036-.373.29-.662.807-.71s.9.181.94.554-.29.675-.808.711c-.044,0-.087.006-.129.006C12.1,13.705,11.779,13.476,11.747,13.144Zm2.82-.252c0-.41.373-.687.975-.687s.977.277.977.687-.373.686-.977.686S14.566,13.314,14.566,12.892Zm6.494-.808c1.229-1.711,2.18-3.469,2.18-4.289,0-.844-.626-1.194-1.638-.988a13.286,13.286,0,0,1-2.1,4.928c-.4-.072-.819-.133-1.265-.169a14.083,14.083,0,0,0,1.132-4.6c0-1.482-1.9-1.049-2.554-.868a38.647,38.647,0,0,1-.47,5.337c-.264,0-.542-.012-.807-.012a6.27,6.27,0,0,1-.819-.036,38.686,38.686,0,0,1-.47-5.337c-.662-.181-2.553-.614-2.553.867a14.2,14.2,0,0,0,1.12,4.6c-.446.048-.867.1-1.265.168a13.246,13.246,0,0,1-2.1-4.927c-1.012-.205-1.638.156-1.638.987s.952,2.579,2.18,4.29a7.153,7.153,0,0,0-1.072.41C7.65,10.795,6.059,9.108,6.059,7.4c0-1.241.856-1.891,2.253-1.891a4.668,4.668,0,0,1,1.265.276A2.385,2.385,0,0,1,11.7,4.362a17.44,17.44,0,0,1,2.915.782l.12-.326a1.313,1.313,0,0,1-.746-1.18A1.249,1.249,0,0,1,15.18,2.446l-.024-.711L15.108,1.7l-.879.085V.819l.891.1.036-.037L15.06,0h.964l-.1.879.037.037.879-.1v.964L15.964,1.7l-.049.037-.023.711a1.222,1.222,0,0,1,1.18,1.192,1.315,1.315,0,0,1-.747,1.18l.12.326a17.965,17.965,0,0,1,2.94-.782,2.336,2.336,0,0,1,2.108,1.469,4.659,4.659,0,0,1,1.265-.276c1.4,0,2.24.65,2.24,1.892,0,1.7-1.589,3.4-2.866,5.048A5.723,5.723,0,0,0,21.06,12.084Z" transform="translate(0 0)" fill="#2e2e2e"/>
      </g>
    </g>
  </g>
</svg>
