<svg height="58.423" viewBox="0 0 85.434 58.423">
  <g>
    <path d="M39.217-2.607H-3.5V11.534H10.641V40.7H25.076V11.534H39.217Zm14.141,0H81.934V11.534H53.358Zm0,28.414V11.534H39.217V40.7H81.934V25.828Z" transform="translate(3.5 2.607)" fill="#2e2e2e"/>
  </g>
  <path d="M2.392,158.822v8.838H.035v-8.838H-3.5v-1.768H5.338v1.768Zm9.566,5.3h-4.9a1.693,1.693,0,0,0,1.686,1.719,1.78,1.78,0,0,0,1.4-.492l1.53,1.323a3.845,3.845,0,0,1-2.935,1.349c-2.357,0-3.856-1.659-3.856-4.25,0-2.513,1.576-4.272,3.653-4.272,2.186,0,3.449,1.764,3.449,4.106a2.052,2.052,0,0,1-.032.518ZM8.43,161.478c-.781,0-1.264.289-1.342,1.468H9.9c-.062-1.178-.5-1.468-1.467-1.468Zm8.694,6.568a4.289,4.289,0,0,1,.094-8.539,3.684,3.684,0,0,1,3.247,1.811l-1.42,1.436a2.209,2.209,0,0,0-1.873-1.171c-1.031,0-1.7.858-1.7,2.2,0,1.312.671,2.186,1.7,2.186a2.364,2.364,0,0,0,1.936-1.046l1.373,1.3a3.909,3.909,0,0,1-3.357,1.827Zm9.719-.387v-4.219c0-1.467-.281-1.9-1.171-1.9s-1.186.437-1.186,1.858v4.265H22.13V157.573l2.357-1.078v3.732c0-.39.944-.718,1.8-.718,2.092,0,2.911,1.436,2.911,3.746v4.405H26.844Z" transform="translate(3.5 -109.624)" fill="#2e2e2e"/>
  <path d="M120.382,160.132a2.076,2.076,0,0,0-2-1.186c-1.639,0-2.575,1.436-2.575,3.465,0,1.967.952,3.465,2.591,3.465a2.287,2.287,0,0,0,2.139-1.389l1.842,1.092a4.174,4.174,0,0,1-4.043,2.466c-2.857,0-4.777-2.186-4.777-5.636,0-3.325,2-5.635,4.854-5.635a4.12,4.12,0,0,1,4,2.419Zm8.024,2.06a1.682,1.682,0,0,0-1.175-.531c-.842,0-1.315.36-1.315,1.779v4.219h-2.357v-8.249h2.357v.815c.589-.39.847-.718,1.612-.718a2,2,0,0,1,1.476.577Zm6.938,5.394v-.258a2.8,2.8,0,0,1-1.8.718c-2.092,0-2.911-1.436-2.911-3.746v-4.889H132.4v4.7c0,1.467.575,1.9,1.466,1.9s1.48-.438,1.48-1.858v-4.748H137.7v8.249h-2.449Zm8.543.073v-4.219c0-1.467-.133-1.9-1.024-1.9s-1.038.437-1.038,1.858v4.265h-2.357v-8.249h2.357v.815c0-.39.8-.718,1.655-.718,2.092,0,2.764,1.436,2.764,3.746v4.405Zm8.058.387a4.289,4.289,0,0,1,.094-8.539,3.682,3.682,0,0,1,3.247,1.811l-1.419,1.436a2.209,2.209,0,0,0-1.873-1.171c-1.031,0-1.7.858-1.7,2.2,0,1.312.671,2.186,1.7,2.186a2.364,2.364,0,0,0,1.936-1.046l1.373,1.3a3.912,3.912,0,0,1-3.358,1.827Zm9.618-.171v-4.434c0-1.467-.281-1.9-1.171-1.9s-1.186.437-1.186,1.858v4.265h-2.357V157.573l2.357-1.078v3.732c0-.39.944-.718,1.8-.718,2.092,0,2.911,1.436,2.911,3.746v4.405h-2.3Z" transform="translate(-79.075 -109.624)" fill="#2e2e2e"/>
</svg>
