<svg height="229.46" viewBox="0 0 626 229.46" class="fill-current inline-icon">
	<path d="M224.499 68.962l.066 68.961h33.405l.136-27.532c.15-30.6.023-28.479 1.943-32.55 2.115-4.486 5.349-6.465 10.563-6.465 6.312 0 9.63 2.8 11.3 9.527.2.806.338 9.923.442 29.1l.149 27.923h33.405l.078-30.142c.11-41.986-.257-44.972-6.7-54.663-10.4-15.636-35.543-17.456-49.214-3.561-1.253 1.273-1.877 1.744-2.018 1.524-.113-.177-.207-11.742-.208-25.7V.005h-33.413l.066 68.962M583.687 5.684c-1.28 3.118-3.76 9.132-5.513 13.367l-16.748 40.45c-1.218 2.942-3.191 7.7-4.381 10.569-5.825 14.035-6.655 16.07-6.655 16.313 0 .174 6.728.24 19.888.2l19.889-.067 5.293-12.788c2.909-7.032 6.168-14.9 7.237-17.484 3.006-7.259 8.344-20.149 10.319-24.923 2.938-7.1 8-19.325 10.574-25.511L626 0l-19.994.008-19.994.006-2.325 5.67m-433.89 34.775c-38.17 4.672-54.273 55.236-27.347 85.872 14.332 16.308 41.858 18.986 55.6 5.408 2.645-2.613 2.516-2.717 2.6 2.073l.072 4.11h32.1l.066-47.692.067-47.692h-32.363v4.029c0 4.854 0 4.857-2.411 2.487-6.573-6.47-17.85-9.884-28.384-8.595m220.13-.091c-34.071 2.974-54.925 35.018-43.786 67.282 15.168 43.936 82.168 43.483 96.594-.653 11.642-35.615-15.52-69.883-52.808-66.629m106.736.128c-33 3.321-53.252 35.269-42.484 67.011 14.78 43.566 81.105 43.868 96.352.44C543.258 71.7 515.239 36.612 476.664 40.5M0 42.76a4.042 4.042 0 0 0 .368.979c.362.742 6.079 14.2 15.29 35.989 2.549 6.028 9.23 21.8 14.847 35.051l10.213 24.091-1.727 4.093c-.95 2.252-2.7 6.384-3.89 9.184s-3.3 7.79-4.7 11.091-2.875 6.807-3.29 7.792a11.952 11.952 0 0 0-.756 2.153c0 .512 35.017.548 35.433.038.235-.288 1.826-4.077 9.066-21.6 2.5-6.05 19.729-47.575 26.095-62.893 17.064-41.072 18.92-45.57 18.92-45.9 0-.216-4.688-.276-17.666-.227l-17.666.067-.827 2.087-4.378 11.092C62.242 89.036 58.697 97.972 58.58 98.09c-.373.371.49 2.5-13.58-33.5-4.544-11.626-8.371-21.344-8.5-21.6-.265-.5-36.5-.733-36.5-.235m167.543 28.736c21.427 7.4 16.462 38.568-6.133 38.49-23.1-.078-27.39-32.732-5.09-38.734a26.27 26.27 0 0 1 11.223.244m210.706-.113c12.6 2.6 18.885 16.139 13.032 28.052-6.8 13.844-27.648 13.579-34.18-.434-6.894-14.794 5.415-30.869 21.148-27.618m108.147.019c19.7 4.038 20.395 32.659.914 37.71a19.2 19.2 0 0 1-24-19.855c.755-12.118 11.3-20.273 23.083-17.855m69.739 24.233a22.64 22.64 0 0 0-14.157 35.017c8.238 12.094 27.5 11.93 36.23-.308 11.7-16.4-2.57-38.834-22.073-34.708"/>
	<path d="M147.04 76.53l-.766.849.849-.767a6.456 6.456 0 0 0 .849-.849c0-.2-.216-.023-.93.767m176.124 13.766c0 .932.049 1.314.107.847a8.3 8.3 0 0 0 0-1.7c-.058-.467-.107-.085-.107.849m210.34.13c0 .861.05 1.182.109.712a6.967 6.967 0 0 0 0-1.566c-.06-.391-.106-.008-.1.853m-173.627 13a6.456 6.456 0 0 0 .849.849l.847.766-.766-.847c-.714-.791-.93-.969-.93-.767M519.19 125.85l-1.032 1.109 1.11-1.03a11.827 11.827 0 0 0 1.109-1.11c0-.2-.227 0-1.187 1.032m-181.624.2a7.25 7.25 0 0 0 1.149 1.044 4.511 4.511 0 0 0-.888-1.044 7.226 7.226 0 0 0-1.151-1.044 4.6 4.6 0 0 0 .889 1.044m221.5 13.757a5.8 5.8 0 0 0 1.436 0c.395-.06.072-.108-.717-.108s-1.113.049-.72.108m-404.893.781a2.873 2.873 0 0 0 1.044-.006c.249-.066-.017-.116-.59-.113s-.778.056-.454.119m220 0a2.873 2.873 0 0 0 1.044-.006c.249-.066-.017-.116-.59-.113s-.778.056-.454.119m107.778 0a3.693 3.693 0 0 0 1.174 0c.324-.061.06-.113-.587-.113s-.91.052-.587.113m-202.84 6.447c-5.785 1.43-9.521 6.854-8.508 12.351a11.073 11.073 0 0 0 21 2.679c3.753-7.81-3.993-17.13-12.492-15.03m-26.49.274c-.215.052-1.27.238-2.348.412-11.14 1.807-17.882 10.029-18.5 22.565l-.157 3.132-3.523.158c-1.937.086-3.551.174-3.587.2s-.066 3.561-.066 7.867v7.829h3.36c2.5 0 3.435.091 3.652.351s.312 5.781.359 19.116l.067 18.766 9.72.067 9.723.069v-18.879c0-14.33.075-18.947.313-19.185s2.07-.313 6.655-.313h6.342v-7.829c0-4.306-.03-7.853-.066-7.882s-3-.117-6.59-.2l-6.524-.142.022-1.566a7.391 7.391 0 0 1 3.854-6.86c1.655-.872 6.71-1.021 8.693-.254 1.477.57 1.394 1.038 1.394-7.8 0-9.112.343-8.1-3.072-9a43.312 43.312 0 0 0-9.716-.634m76.778 25.452a16.266 16.266 0 0 0-7.668 4.488c-2.3 2.314-2.3 2.313-2.3-1.079 0-1.856-.08-2.33-.413-2.458-.93-.355-18.823-.172-19.13.2-.215.258-.276 7.547-.227 27.075l.066 26.722h19.573l.132-15.658.13-15.658.618-1.535c2.385-5.914 9.824-6.423 12.348-.846l.6 1.336.13 16.18.13 16.181h19.573v-19.573c0-21.491.08-20.248-1.613-24.756-3.161-8.416-12.8-13.079-21.948-10.616m49.65-.114c-26.325 5.786-27.493 48.08-1.54 55.847 7.37 2.2 15.884.316 20.63-4.578 1.532-1.578 1.623-1.5 1.72 1.444l.075 2.347h19.312l.066-26.722c.049-19.527-.013-26.816-.227-27.075-.4-.487-18.483-.526-18.968-.042a6.012 6.012 0 0 0-.313 2.61c0 2.631-.052 2.674-1.448 1.228-4.275-4.431-12.431-6.569-19.307-5.058m78.226.114a16.055 16.055 0 0 0-7.69 4.527l-2.023 2.053-.05-.871a84.1 84.1 0 0 1-.074-2.631c-.04-2.458.675-2.3-10.07-2.223l-9.51.069-.066 27.075-.066 27.076h9.788c9.14 0 9.788-.03 9.805-.457.009-.251.008-6.328 0-13.505-.033-17.525.175-19.4 2.414-21.757a6.7 6.7 0 0 1 9.639.219c1.776 2.073 1.763 1.949 1.768 19.285 0 8.56.1 15.712.213 15.893.164.257 2.31.315 9.847.26l9.639-.067v-19.575c0-22.3.07-21.5-2.325-26.359-3.661-7.427-12.771-11.293-21.236-9.013m52.007 0c-28.191 6.1-31.221 45.771-4.2 54.975 7.242 2.468 19.34 1.818 23.019-1.234.45-.376.547-17.722.1-17.722a7.977 7.977 0 0 0-1.63.763c-8.426 4.7-18.414 1.167-19.817-7.015-1.668-9.728 9.058-15.688 19.529-10.85 2.418 1.116 2.2 1.942 2.122-8.214l-.07-8.479-1.285-.614c-4.1-1.956-12.6-2.726-17.764-1.61m45.962-.127c-19.784 4.1-29.373 26.644-18.848 44.308 9.7 16.278 38.643 16.8 49.593.886 1.3-1.888 1.9-1.473-7.273-5.008-8.925-3.439-8.338-3.323-9.685-1.932-5.44 5.62-15.618 3.352-17.343-3.863-.337-1.409-.871-1.369 18.817-1.441l18.373-.067.078-3.653c.312-14.594-7.323-25.343-20.516-28.885a45.63 45.63 0 0 0-13.2-.346M272 173.713c-.258.1-.326 5.773-.326 27.12v26.989h9.758c8.657 0 9.775-.047 9.916-.413.493-1.286.157-53.329-.346-53.6s-18.341-.365-19-.1m292.287 13.917c2.695.833 5.208 3.536 5.462 5.873l.085.783-9.068.069-9.078.079v-.59c.019-4.541 6.937-7.948 12.588-6.2m-171.141 2.892a10.857 10.857 0 0 1 3.63 18.251c-5.36 4.942-14.568 3.255-17.6-3.222a11.035 11.035 0 0 1 13.97-15.029"/>
</svg>
