<svg xmlns="http://www.w3.org/2000/svg" id="icon-day"
	xmlns:xlink="http://www.w3.org/1999/xlink" viewBox="0 0 40 34">
    <g transform="translate(265.074 443.271) rotate(8)">
      <path d="M -302.014404296875 -375.5872497558594 L -303.2996215820313 -379.6117553710938 C -302.8758239746094 -379.5475158691406 -302.4461364746094 -379.5151062011719 -302.0148010253906 -379.5151062011719 C -301.5833129882813 -379.5151062011719 -301.153564453125 -379.5475158691406 -300.7297058105469 -379.6117858886719 L -302.014404296875 -375.5872497558594 Z M -310.8028259277344 -379.2268676757813 L -308.8653259277344 -382.9820861816406 C -308.3548889160156 -382.2888488769531 -307.7409057617188 -381.6749572753906 -307.0474243164063 -381.1644897460938 L -310.8028259277344 -379.2268676757813 Z M -293.2271118164063 -379.2275390625 L -296.9817504882813 -381.1647338867188 C -296.2885131835938 -381.6750793457031 -295.6746215820313 -382.2889099121094 -295.1642761230469 -382.9820556640625 L -293.2271118164063 -379.2275390625 Z M -293.6114196777344 -386.7295532226563 C -293.5470886230469 -387.1536254882813 -293.5147094726563 -387.5830993652344 -293.5147094726563 -388.0143127441406 C -293.5147094726563 -388.4458618164063 -293.5471496582031 -388.8758239746094 -293.6115112304688 -389.2999877929688 L -289.5874938964844 -388.0147399902344 L -293.6114196777344 -386.7295532226563 Z M -310.4182434082031 -386.7297668457031 L -314.4420166015625 -388.0147399902344 L -310.4181518554688 -389.2997741699219 C -310.4824829101563 -388.8757629394531 -310.514892578125 -388.4458923339844 -310.514892578125 -388.0143127441406 C -310.514892578125 -387.5831298828125 -310.4824829101563 -387.1535034179688 -310.4182434082031 -386.7297668457031 Z M -308.865234375 -393.0472717285156 L -310.8028259277344 -396.8026123046875 L -307.0474243164063 -394.8650207519531 C -307.7408142089844 -394.3546142578125 -308.3546752929688 -393.7407531738281 -308.865234375 -393.0472717285156 Z M -295.1643371582031 -393.0473327636719 C -295.6746520996094 -393.740478515625 -296.2885437011719 -394.3543395996094 -296.9818115234375 -394.86474609375 L -293.2271423339844 -396.8019714355469 L -295.1643371582031 -393.0473327636719 Z M -303.3010559082031 -396.4175109863281 L -302.0144958496094 -400.4425659179688 L -300.7297973632813 -396.4179992675781 C -301.1544799804688 -396.4820861816406 -301.5842590332031 -396.514404296875 -302.0148010253906 -396.514404296875 C -302.4466247558594 -396.514404296875 -302.8767700195313 -396.48193359375 -303.3010559082031 -396.4175109863281 Z" stroke="none"/>
      <path d="M -302.0144958496094 -377.2311401367188 L -301.439208984375 -379.0333251953125 C -301.6305236816406 -379.0212097167969 -301.8225402832031 -379.0151062011719 -302.0148010253906 -379.0151062011719 C -302.2069396972656 -379.0151062011719 -302.3988342285156 -379.0211791992188 -302.5900268554688 -379.0332946777344 L -302.0144958496094 -377.2311401367188 M -309.6405029296875 -380.3892211914063 L -307.95849609375 -381.2570495605469 C -308.2467651367188 -381.5108337402344 -308.5188903808594 -381.7829284667969 -308.772705078125 -382.0711669921875 L -309.6405029296875 -380.3892211914063 M -294.3894653320313 -380.3898620605469 L -295.2568969726563 -382.0711059570313 C -295.5106201171875 -381.7829895019531 -295.7825927734375 -381.5110168457031 -296.0707397460938 -381.25732421875 L -294.3894653320313 -380.3898620605469 M -293.0328979492188 -387.439208984375 L -291.2308959960938 -388.0147705078125 L -293.032958984375 -388.59033203125 C -293.0208129882813 -388.3988342285156 -293.0147094726563 -388.2066955566406 -293.0147094726563 -388.0143127441406 C -293.0147094726563 -387.8222045898438 -293.0207824707031 -387.6304321289063 -293.0328979492188 -387.439208984375 M -310.9967041015625 -387.4393920898438 C -311.0088195800781 -387.6305236816406 -311.014892578125 -387.822265625 -311.014892578125 -388.0143127441406 C -311.014892578125 -388.2066955566406 -311.0088195800781 -388.3987121582031 -310.9966735839844 -388.5901489257813 L -312.7984313964844 -388.0147705078125 L -310.9967041015625 -387.4393920898438 M -308.7726440429688 -393.958251953125 C -308.518798828125 -394.2465515136719 -308.2467041015625 -394.5186462402344 -307.9584350585938 -394.7724304199219 L -309.6404724121094 -395.6402893066406 L -308.7726440429688 -393.958251953125 M -295.2569580078125 -393.9583435058594 L -294.3894958496094 -395.6396484375 L -296.0708312988281 -394.7721557617188 C -295.7825622558594 -394.5183715820313 -295.5107116699219 -394.2465209960938 -295.2569580078125 -393.9583435058594 M -302.5911865234375 -396.9961242675781 C -302.3995666503906 -397.00830078125 -302.2073669433594 -397.014404296875 -302.0148010253906 -397.014404296875 C -301.8226928710938 -397.014404296875 -301.6307067871094 -397.0083312988281 -301.439208984375 -396.9961853027344 L -302.0148010253906 -398.7993469238281 L -302.5911865234375 -396.9961242675781 M -302.0147094726563 -374.6297302246094 C -302.1479187011719 -374.6297302246094 -302.2599487304688 -374.7116088867188 -302.3001098632813 -374.8383178710938 L -304.0354919433594 -380.2724914550781 C -303.380859375 -380.1021423339844 -302.701416015625 -380.0151062011719 -302.0148010253906 -380.0151062011719 C -301.3302001953125 -380.0151062011719 -300.6502685546875 -380.1017150878906 -299.9939270019531 -380.2725524902344 L -301.7286071777344 -374.8383178710938 C -301.7691955566406 -374.7116088867188 -301.8815002441406 -374.6297302246094 -302.0147094726563 -374.6297302246094 Z M -292.7606506347656 -378.4610595703125 C -292.8081970214844 -378.4610595703125 -292.8549499511719 -378.4727783203125 -292.8995971679688 -378.4959106445313 L -297.9694213867188 -381.1116943359375 C -296.7918395996094 -381.8031616210938 -295.8034973144531 -382.7908325195313 -295.1112365722656 -383.9696960449219 L -292.4955139160156 -378.9000244140625 C -292.4462585449219 -378.8045043945313 -292.4494323730469 -378.6982421875 -292.5041809082031 -378.6084289550781 C -292.5595703125 -378.5175170898438 -292.6578369140625 -378.4610595703125 -292.7606506347656 -378.4610595703125 Z M -311.2684020996094 -378.4610595703125 C -311.3710632324219 -378.4610290527344 -311.4693298339844 -378.5173645019531 -311.5247802734375 -378.6080322265625 C -311.5797424316406 -378.6978759765625 -311.5831604003906 -378.8042907714844 -311.5341186523438 -378.9000244140625 L -308.9183654785156 -383.9697265625 C -308.2270202636719 -382.7923583984375 -307.2391357421875 -381.8039855957031 -306.0597534179688 -381.1114501953125 L -311.1291198730469 -378.4959106445313 C -311.1739501953125 -378.4727783203125 -311.2207946777344 -378.4610595703125 -311.2684020996094 -378.4610595703125 Z M -294.2721557617188 -385.99365234375 L -294.2716979980469 -385.9953918457031 C -294.1011657714844 -386.651123046875 -294.0147094726563 -387.3303833007813 -294.0147094726563 -388.0143127441406 C -294.0147094726563 -388.6989135742188 -294.1013793945313 -389.3790893554688 -294.2723083496094 -390.0359191894531 L -288.8388061523438 -388.3005065917969 C -288.7117004394531 -388.2598876953125 -288.6295471191406 -388.1477355957031 -288.6295471191406 -388.0147705078125 C -288.6295471191406 -387.8817749023438 -288.7117004394531 -387.7695922851563 -288.8388061523438 -387.72900390625 L -294.2704162597656 -385.9942016601563 L -294.2721557617188 -385.99365234375 Z M -309.7575378417969 -385.993896484375 L -309.7592468261719 -385.9944458007813 L -315.1907958984375 -387.72900390625 C -315.3175048828125 -387.7695922851563 -315.3993835449219 -387.8817749023438 -315.3993835449219 -388.0147705078125 C -315.3993835449219 -388.1477355957031 -315.3175048828125 -388.2599182128906 -315.1907958984375 -388.3005065917969 L -309.7573547363281 -390.0356750488281 C -309.9278259277344 -389.3807678222656 -310.014892578125 -388.7010803222656 -310.014892578125 -388.0143127441406 C -310.014892578125 -387.3306274414063 -309.928466796875 -386.6514587402344 -309.7579650878906 -385.9956359863281 L -309.7575378417969 -385.993896484375 Z M -295.1112976074219 -392.0596618652344 L -295.1122131347656 -392.0612182617188 C -295.8040771484375 -393.2386779785156 -296.7921142578125 -394.2264709472656 -297.969482421875 -394.9177856445313 L -292.8995971679688 -397.5335998535156 C -292.8548583984375 -397.5567321777344 -292.80810546875 -397.5684814453125 -292.7606201171875 -397.5684814453125 C -292.6578369140625 -397.5684814453125 -292.5595703125 -397.5120239257813 -292.5041809082031 -397.421142578125 C -292.4494323730469 -397.331298828125 -292.4462890625 -397.2250061035156 -292.4955139160156 -397.1295166015625 L -295.1104736328125 -392.061279296875 L -295.1112976074219 -392.0596618652344 Z M -308.9183044433594 -392.0596618652344 L -308.9191284179688 -392.061279296875 L -311.5341186523438 -397.1295166015625 C -311.5831298828125 -397.2252197265625 -311.5797119140625 -397.3316345214844 -311.5248107910156 -397.4214477539063 C -311.4693298339844 -397.5121459960938 -311.37109375 -397.5684814453125 -311.2684326171875 -397.5684814453125 C -311.2209167480469 -397.5684814453125 -311.1740417480469 -397.5567321777344 -311.1291198730469 -397.5335998535156 L -306.0596923828125 -394.9180297851563 C -307.2366943359375 -394.22705078125 -308.2248840332031 -393.2397766113281 -308.9173889160156 -392.0612182617188 L -308.9183044433594 -392.0596618652344 Z M -304.0372314453125 -395.7565307617188 L -304.0366821289063 -395.7582702636719 L -302.3001098632813 -401.1912231445313 C -302.2599487304688 -401.3179016113281 -302.1479187011719 -401.3997802734375 -302.0147094726563 -401.3997802734375 C -301.8815002441406 -401.3997802734375 -301.7691955566406 -401.3179016113281 -301.7286071777344 -401.1912231445313 L -299.9944763183594 -395.7586975097656 C -300.6514892578125 -395.9279479980469 -301.330810546875 -396.014404296875 -302.0148010253906 -396.014404296875 C -302.6993408203125 -396.014404296875 -303.3792114257813 -395.9277954101563 -304.0354919433594 -395.7569885253906 L -304.0372314453125 -395.7565307617188 Z" stroke="none"/>
    </g>
    <g transform="translate(14.042 9.094) rotate(8)" fill="none">
      <path d="M7,0A7,7,0,1,1,0,7,7,7,0,0,1,7,0Z" stroke="none"/>
      <path d="M 7 1 C 3.691590309143066 1 1 3.691590309143066 1 7 C 1 10.30840969085693 3.691590309143066 13 7 13 C 10.30840969085693 13 13 10.30840969085693 13 7 C 13 3.691590309143066 10.30840969085693 1 7 1 M 7 0 C 10.86598968505859 0 14 3.134010314941406 14 7 C 14 10.86598968505859 10.86598968505859 14 7 14 C 3.134010314941406 14 0 10.86598968505859 0 7 C 0 3.134010314941406 3.134010314941406 0 7 0 Z" stroke="none"/>
    </g>
</svg>
